<?xml version="1.0" encoding="utf-8"?>
<!-- Generator: Adobe Illustrator 18.1.0, SVG Export Plug-In . SVG Version: 6.00 Build 0)  -->
<svg version="1.1" id="Layer_1" xmlns="http://www.w3.org/2000/svg" xmlns:xlink="http://www.w3.org/1999/xlink" x="0px" y="0px"
	 viewBox="0 0 20 20" enable-background="new 0 0 20 20" xml:space="preserve">
<g>
	<path fill="#FFFFFF" d="M10,0.2c2.9,0,5.7,0,8.6,0c0.7,0,1.1,0.4,1.1,1.1c0,5.7,0,11.5,0,17.2c0,0.6-0.5,1.1-1.1,1.1
		c-1.6,0-3.1,0-4.7,0c-0.2,0-0.2,0-0.2-0.2c0-2.4,0-4.8,0-7.2c0-0.2,0-0.2,0.2-0.2c0.7,0,1.5,0,2.2,0c0.1,0,0.2,0,0.2-0.2
		c0.1-0.9,0.2-1.8,0.3-2.7c0-0.1,0-0.2-0.1-0.2c-0.9,0-1.7,0-2.6,0c-0.1,0-0.2,0-0.2-0.2c0-0.7,0-1.3,0-2c0-0.2,0.1-0.4,0.1-0.5
		c0.2-0.4,0.6-0.6,1-0.6c0.6,0,1.1,0,1.7,0c0.2,0,0.2,0,0.2-0.2c0-0.8,0-1.5,0-2.3c0-0.2,0-0.2-0.2-0.2c-0.8,0-1.6-0.1-2.4-0.1
		c-1,0-1.9,0.3-2.6,1.1c-0.5,0.6-0.8,1.2-0.9,2c-0.1,0.5-0.1,1-0.1,1.5c0,0.5,0,0.9,0,1.4c0,0.1,0,0.2-0.2,0.2c-0.7,0-1.5,0-2.2,0
		C8.1,9.2,8,9.2,8,9.4c0,0.9,0,1.8,0,2.6c0,0.1,0,0.2,0.2,0.2c0.7,0,1.5,0,2.2,0c0.2,0,0.2,0,0.2,0.2c0,2.4,0,4.8,0,7.2
		c0,0.1,0,0.2-0.2,0.2c-3.1,0-6.1,0-9.2,0c-0.6,0-1.1-0.5-1.1-1.1c0-5.8,0-11.6,0-17.4c0-0.6,0.5-1.1,1.1-1.1
		C4.2,0.2,7.1,0.2,10,0.2z"/>
</g>
</svg>
