<?xml version="1.0" encoding="utf-8"?>
<!-- Generator: Adobe Illustrator 18.1.0, SVG Export Plug-In . SVG Version: 6.00 Build 0)  -->
<svg version="1.1" id="Layer_1" xmlns="http://www.w3.org/2000/svg" xmlns:xlink="http://www.w3.org/1999/xlink" x="0px" y="0px"
	 viewBox="630 390 20 20" enable-background="new 630 390 20 20" xml:space="preserve">
<g>
	<path fill="#FFFFFF" d="M648.5,392.9c-0.2,0.9-0.8,1.5-1.5,1.9c0.7,0,1.3-0.3,1.9-0.5c-0.2,0.4-0.4,0.6-0.6,0.9
		c-0.3,0.3-0.6,0.7-1,0.9c-0.1,0.1-0.2,0.2-0.2,0.4c0,2.7-0.9,5.1-2.6,7.3c-1.6,1.8-3.6,3-6,3.4c-2.1,0.4-4.2,0.2-6.1-0.6
		c-0.5-0.2-0.9-0.4-1.3-0.7c-0.1,0-0.2-0.1-0.2-0.2c1.9,0.2,3.8-0.3,5.3-1.6c-0.5,0-0.9-0.1-1.3-0.3c-1-0.4-1.7-1.1-2.1-2
		c-0.1-0.2-0.1-0.3,0.2-0.2c0.4,0.1,0.9,0.1,1.4-0.1c-0.8-0.2-1.5-0.6-1.9-1.2c-0.6-0.7-0.9-1.5-1-2.3c0-0.3,0-0.3,0.3-0.2
		c0.3,0.2,0.7,0.3,1.1,0.4c0.1,0,0.1,0,0.2,0c-0.3-0.3-0.6-0.6-0.8-0.9c-0.9-1.3-1-2.5-0.3-3.9c0.1-0.2,0.2-0.2,0.3,0
		c1.6,1.8,3.5,3,5.8,3.5c0.5,0.1,0.9,0.2,1.4,0.2c0.2,0,0.2-0.1,0.2-0.3c-0.3-2,1-3.9,3-4.3c1.2-0.2,2.3,0.1,3.2,1
		c0.1,0.1,0.3,0.2,0.5,0.1c0.6-0.1,1.1-0.3,1.7-0.6C648.2,393.1,648.4,393,648.5,392.9z"/>
</g>
</svg>
