<?xml version="1.0" encoding="utf-8"?>
<!-- Generator: Adobe Illustrator 18.1.0, SVG Export Plug-In . SVG Version: 6.00 Build 0)  -->
<svg version="1.1" id="Layer_1" xmlns="http://www.w3.org/2000/svg" xmlns:xlink="http://www.w3.org/1999/xlink" x="0px" y="0px"
	 viewBox="0 0 20 15.5" enable-background="new 0 0 20 15.5" xml:space="preserve">
<path fill="#FFFFFF" d="M18.9,8c-0.3-1.5-1.1-2.7-2.5-3.5c-0.2-0.1-0.3-0.3-0.3-0.5c-0.2-1.4-0.9-2.5-2.3-3.1
	c-1.1-0.5-2.3-0.5-3.5-0.2C9.3,1,8.4,1.5,8,2.5c0,0,0,0,0,0.1c-2.2-1.1-4.3,1-4.1,3.1C3.7,5.8,3.5,5.9,3.3,5.9C3.1,6,3,6.1,2.8,6.2
	c-1.9,1.3-2.4,4-1.3,6c0.8,1.4,2,2.1,3.6,2.1c0.8,0,1.7,0,2.5,0c2.2,0,4.4,0,6.7,0c1.1,0,2.1-0.4,2.9-1.1C18.8,11.8,19.4,10,18.9,8z
	 M7.7,8.5C7.5,9.2,7.2,9.9,7,10.7C6.9,10.8,6.8,11,6.6,11c-0.2,0-0.3-0.1-0.3-0.3C6.1,10.2,6,9.7,5.8,9.2c-0.2,0.5-0.3,0.9-0.4,1.3
	c0,0,0,0.1,0,0.1C5.3,10.8,5.2,10.9,5,11c-0.2,0-0.3-0.1-0.3-0.3C4.4,9.9,4.2,9.2,3.9,8.5c-0.1-0.2,0-0.4,0.2-0.4
	c0.2-0.1,0.3,0,0.4,0.3c0.1,0.4,0.3,0.9,0.4,1.3c0,0.1,0,0.1,0.1,0.2C5.1,9.5,5.2,9.3,5.3,9c0.1-0.2,0.2-0.5,0.2-0.7
	c0-0.1,0.1-0.2,0.3-0.2c0.2,0,0.3,0.1,0.3,0.3c0.2,0.5,0.3,0.9,0.5,1.4c0,0,0,0,0,0.1c0.1-0.2,0.1-0.3,0.2-0.5C6.9,9,7,8.6,7.1,8.3
	C7.2,8.1,7.4,8,7.5,8.1C7.7,8.1,7.8,8.3,7.7,8.5z M11.9,8.5c-0.2,0.7-0.5,1.4-0.7,2.2C11.1,10.8,11,11,10.8,11
	c-0.2,0-0.3-0.1-0.3-0.3c-0.1-0.4-0.3-0.8-0.4-1.2c0-0.1,0-0.1-0.1-0.2c-0.1,0.3-0.2,0.5-0.3,0.8c-0.1,0.2-0.1,0.4-0.2,0.6
	C9.5,10.8,9.4,11,9.2,11c-0.2,0-0.3-0.1-0.3-0.3C8.6,9.9,8.4,9.2,8.1,8.5C8,8.3,8.1,8.1,8.3,8.1c0.2-0.1,0.3,0,0.4,0.2
	c0.2,0.5,0.3,1,0.5,1.5c0.2-0.5,0.3-1,0.5-1.5C9.7,8.2,9.8,8.1,10,8.1c0.2,0,0.3,0.2,0.3,0.3c0.2,0.5,0.3,0.9,0.5,1.5
	c0.1-0.2,0.1-0.3,0.2-0.4c0.1-0.4,0.2-0.7,0.4-1.1c0.1-0.2,0.2-0.3,0.4-0.2C11.9,8.1,12,8.3,11.9,8.5z M16.1,8.5
	c-0.2,0.7-0.5,1.4-0.7,2.1c0,0,0,0,0,0.1C15.3,10.8,15.2,11,15,11c-0.2,0-0.3-0.1-0.3-0.3c-0.1-0.3-0.2-0.6-0.3-0.9
	c-0.1-0.2-0.1-0.3-0.2-0.5c-0.2,0.5-0.3,0.9-0.5,1.3c-0.1,0.2-0.1,0.4-0.4,0.4c-0.2,0-0.3-0.2-0.4-0.4c-0.2-0.7-0.5-1.4-0.7-2.1
	c0-0.1,0-0.2,0-0.3c0-0.1,0.2-0.1,0.3-0.2c0.1,0,0.2,0.1,0.3,0.2c0.1,0.4,0.3,0.9,0.5,1.3c0,0.1,0,0.1,0.1,0.2
	c0-0.1,0.1-0.1,0.1-0.2c0.1-0.4,0.3-0.9,0.4-1.3c0.1-0.1,0.1-0.3,0.3-0.3c0.2,0,0.3,0.1,0.3,0.3c0.2,0.5,0.3,1,0.5,1.5
	c0-0.1,0.1-0.1,0.1-0.2c0.1-0.4,0.3-0.9,0.4-1.3c0.1-0.2,0.2-0.3,0.4-0.3C16.1,8.1,16.1,8.3,16.1,8.5z"/>
</svg>
