<?xml version="1.0" encoding="utf-8"?>
<!-- Generator: Adobe Illustrator 18.1.0, SVG Export Plug-In . SVG Version: 6.00 Build 0)  -->
<svg version="1.1" id="Layer_1" xmlns="http://www.w3.org/2000/svg" xmlns:xlink="http://www.w3.org/1999/xlink" x="0px" y="0px"
	 viewBox="631 390.5 18 19" enable-background="new 631 390.5 18 19" xml:space="preserve">
<g>
	<path fill="#580732" d="M640.1,391c2.7,0,5.2,0,7.9,0c0.6,0,1,0.4,1,1c0,5.2,0,10.6,0,15.8c0,0.6-0.5,1-1,1c-1.5,0-2.8,0-4.3,0
		c-0.2,0-0.2,0-0.2-0.2c0-2.2,0-4.4,0-6.6c0-0.2,0-0.2,0.2-0.2c0.6,0,1.4,0,2,0c0.1,0,0.2,0,0.2-0.2c0.1-0.8,0.2-1.7,0.3-2.5
		c0-0.1,0-0.2-0.1-0.2c-0.8,0-1.6,0-2.4,0c-0.1,0-0.2,0-0.2-0.2c0-0.6,0-1.2,0-1.8c0-0.2,0.1-0.4,0.1-0.5c0.2-0.4,0.6-0.6,0.9-0.6
		c0.6,0,1,0,1.6,0c0.2,0,0.2,0,0.2-0.2c0-0.7,0-1.4,0-2.1c0-0.2,0-0.2-0.2-0.2c-0.7,0-1.5-0.1-2.2-0.1c-0.9,0-1.7,0.3-2.4,1
		c-0.5,0.6-0.7,1.1-0.8,1.8c-0.1,0.5-0.1,0.9-0.1,1.4c0,0.5,0,0.8,0,1.3c0,0.1,0,0.2-0.2,0.2c-0.6,0-1.4,0-2,0
		c0,0.2-0.1,0.2-0.1,0.4c0,0.8,0,1.7,0,2.4c0,0.1,0,0.2,0.2,0.2c0.6,0,1.4,0,2,0c0.2,0,0.2,0,0.2,0.2c0,2.2,0,4.4,0,6.6
		c0,0.1,0,0.2-0.2,0.2c-2.8,0-5.6,0-8.4,0c-0.6,0-1-0.5-1-1c0-5.3,0-10.7,0-16c0-0.6,0.5-1,1-1C634.8,391,637.4,391,640.1,391z"/>
</g>
</svg>
