<?xml version="1.0" encoding="utf-8"?>
<!-- Generator: Adobe Illustrator 18.1.0, SVG Export Plug-In . SVG Version: 6.00 Build 0)  -->
<svg version="1.1" id="Layer_1" xmlns="http://www.w3.org/2000/svg" xmlns:xlink="http://www.w3.org/1999/xlink" x="0px" y="0px"
	 viewBox="631 390.5 18 19" enable-background="new 631 390.5 18 19" xml:space="preserve">
<g>
	<path fill="#580732" d="M648.5,393.1c-0.2,0.9-0.8,1.5-1.5,1.9c0.7,0,1.3-0.3,1.9-0.5c-0.2,0.4-0.4,0.6-0.6,0.9
		c-0.3,0.3-0.6,0.7-1,0.9c-0.1,0.1-0.2,0.2-0.2,0.4c0,2.7-0.9,5-2.6,7.2c-1.6,1.8-3.5,3-5.9,3.3c-2.1,0.4-4.1,0.2-6-0.6
		c-0.5-0.2-0.9-0.4-1.3-0.7c-0.1,0-0.2-0.1-0.2-0.2c1.9,0.2,3.7-0.3,5.2-1.6c-0.5,0-0.9-0.1-1.3-0.3c-1-0.4-1.7-1.1-2.1-2
		c-0.1-0.2-0.1-0.3,0.2-0.2c0.4,0.1,0.9,0.1,1.4-0.1c-0.8-0.2-1.5-0.6-1.9-1.2c-0.6-0.7-0.9-1.5-1-2.3c0-0.3,0-0.3,0.3-0.2
		c0.3,0.2,0.7,0.3,1.1,0.4c0.1,0,0.1,0,0.2,0c-0.3-0.3-0.6-0.6-0.8-0.9c-0.9-1.3-1-2.5-0.3-3.8c0.1-0.2,0.2-0.2,0.3,0
		c1.6,1.8,3.4,3,5.7,3.4c0.5,0.1,0.9,0.2,1.4,0.2c0.2,0,0.2-0.1,0.2-0.3c-0.3-2,1-3.8,3-4.2c1.2-0.2,2.3,0.1,3.2,1
		c0.1,0.1,0.3,0.2,0.5,0.1c0.1-0.1,0.3-0.1,0.4-0.1c0.2,0,0.3-0.1,0.5-0.2c0.2-0.1,0.5-0.2,0.7-0.3
		C648.1,393.2,648.5,392.9,648.5,393.1z"/>
</g>
</svg>
