<?xml version="1.0" encoding="utf-8"?>
<!-- Generator: Adobe Illustrator 18.1.0, SVG Export Plug-In . SVG Version: 6.00 Build 0)  -->
<svg version="1.1" id="Layer_1" xmlns="http://www.w3.org/2000/svg" xmlns:xlink="http://www.w3.org/1999/xlink" x="0px" y="0px"
	 viewBox="0 0 765.1 163.8" enable-background="new 0 0 765.1 163.8" xml:space="preserve">
<g>
	<g>
		<g>
			<g>
				<path fill="#570930" d="M16.3,128.3v3.7H3.9v6.1h11.1v3.5H3.9v6.2h12.8v3.7H0v-23.2H16.3z"/>
				<path fill="#570930" d="M39.8,128.3h3.9v23.2h-4.3l-13.2-16.9v16.9h-3.9v-23.2h3.9l13.5,17.3V128.3z"/>
				<path fill="#570930" d="M61.3,147.9c1.4,0,2.5-0.2,3.5-0.7c1-0.5,2-1.2,3.1-2.2l2.5,2.6c-2.5,2.7-5.5,4.1-9,4.1
					s-6.4-1.1-8.8-3.4c-2.3-2.3-3.5-5.1-3.5-8.6c0-3.4,1.2-6.3,3.5-8.6c2.4-2.3,5.3-3.4,9-3.4c3.6,0,6.6,1.3,9,4l-2.5,2.7
					c-1.1-1.1-2.2-1.8-3.1-2.2c-1-0.4-2.1-0.6-3.5-0.6c-2.4,0-4.3,0.8-5.9,2.3c-1.6,1.5-2.4,3.4-2.4,5.8s0.8,4.3,2.4,5.9
					C57.3,147.1,59.2,147.9,61.3,147.9z"/>
				<path fill="#570930" d="M81,146.2c1.1,1.2,2.5,1.9,4.3,1.9c1.8,0,3.3-0.6,4.3-1.9c1.1-1.2,1.6-2.9,1.6-5v-12.8h3.9v13
					c0,3.3-0.9,5.9-2.8,7.7c-1.8,1.8-4.2,2.7-7.1,2.7s-5.2-0.9-7.1-2.7c-1.8-1.8-2.8-4.4-2.8-7.7v-13h3.9v12.8
					C79.4,143.3,79.9,144.9,81,146.2z"/>
				<path fill="#570930" d="M118.2,128.3v3.7h-12.4v6.1H117v3.5h-11.1v6.2h12.8v3.7h-16.7v-23.2H118.2z"/>
				<path fill="#570930" d="M141.7,128.3h3.9v23.2h-4.3l-13.2-16.9v16.9h-3.9v-23.2h3.9l13.5,17.3V128.3z"/>
				<path fill="#570930" d="M161.4,131.9v19.6h-3.9v-19.6h-7.1v-3.6h18v3.6H161.4z"/>
				<path fill="#570930" d="M191.8,135.8c0,3.8-1.7,6.2-5,7.2l6.1,8.4h-5l-5.6-7.8h-5.2v7.8h-3.9v-23.2h8.7c3.5,0,6.1,0.6,7.6,1.8
					C191.1,131.3,191.8,133.2,191.8,135.8z M186.6,139.1c0.8-0.7,1.2-1.8,1.2-3.3c0-1.5-0.4-2.6-1.2-3.1c-0.8-0.6-2.3-0.8-4.4-0.8
					h-5v8.3h4.9C184.3,140.1,185.8,139.8,186.6,139.1z"/>
				<path fill="#570930" d="M217.5,148.3c-2.4,2.3-5.3,3.4-8.7,3.4s-6.4-1.1-8.7-3.4c-2.4-2.3-3.5-5.1-3.5-8.6
					c0-3.4,1.2-6.3,3.5-8.6c2.4-2.3,5.3-3.4,8.7-3.4s6.4,1.1,8.7,3.4c2.4,2.3,3.5,5.1,3.5,8.6C221.1,143.1,219.9,146,217.5,148.3z
					 M214.6,133.8c-1.6-1.6-3.5-2.5-5.8-2.5s-4.3,0.8-5.8,2.5c-1.6,1.6-2.4,3.6-2.4,6s0.8,4.3,2.4,6c1.6,1.6,3.5,2.5,5.8,2.5
					s4.3-0.8,5.8-2.5c1.6-1.6,2.4-3.6,2.4-6S216.2,135.4,214.6,133.8z"/>
				<path fill="#570930" d="M253.9,131.3c2.2,2,3.4,4.8,3.4,8.4s-1.1,6.5-3.3,8.6c-2.2,2.1-5.5,3.2-10,3.2h-7.7v-23.2h8
					C248.4,128.3,251.6,129.3,253.9,131.3z M253.3,139.9c0-5.3-3.1-8-9.2-8h-3.9v15.9h4.4c2.8,0,5-0.7,6.5-2
					C252.5,144.5,253.3,142.5,253.3,139.9z"/>
				<path fill="#570930" d="M279.2,128.3v3.7h-12.4v6.1h11.1v3.5h-11.1v6.2h12.8v3.7h-16.7v-23.2H279.2z"/>
				<path fill="#570930" d="M312.5,131.3c2.2,2,3.4,4.8,3.4,8.4s-1.1,6.5-3.3,8.6c-2.2,2.1-5.5,3.2-10,3.2h-7.7v-23.2h8
					C307,128.3,310.2,129.3,312.5,131.3z M311.9,139.9c0-5.3-3.1-8-9.2-8h-3.9v15.9h4.4c2.8,0,5-0.7,6.5-2
					C311.1,144.5,311.9,142.5,311.9,139.9z"/>
				<path fill="#570930" d="M324.7,146.2l-2.3,5.3h-4.2l10.2-23.2h4.2l10.2,23.2h-4.2l-2.3-5.3H324.7z M334.8,142.6l-4.2-9.6
					l-4.2,9.6H334.8z"/>
				<path fill="#570930" d="M364.1,128.3h3.9v23.2h-4.3l-13.2-16.9v16.9h-3.9v-23.2h3.9l13.5,17.3V128.3z"/>
				<path fill="#570930" d="M387,131.9h-13.1v-3.6h18.6v3.1l-13.5,16.4v0.1h13.7v3.6h-19.2v-3L387,131.9L387,131.9z"/>
				<path fill="#570930" d="M401.4,146.2l-2.3,5.3h-4.2l10.2-23.2h4.2l10.2,23.2h-4.2l-2.3-5.3H401.4z M411.5,142.6l-4.2-9.6
					l-4.2,9.6H411.5z"/>
				<path fill="#570930" d="M443.7,147.9c1.4,0,2.5-0.2,3.5-0.7c1-0.5,2-1.2,3.1-2.2l2.5,2.6c-2.5,2.7-5.5,4.1-9,4.1
					s-6.4-1.1-8.8-3.4c-2.3-2.3-3.5-5.1-3.5-8.6c0-3.4,1.2-6.3,3.5-8.6c2.4-2.3,5.3-3.4,9-3.4c3.6,0,6.6,1.3,9,4l-2.5,2.7
					c-1.1-1.1-2.2-1.8-3.1-2.2c-1-0.4-2.1-0.6-3.5-0.6c-2.4,0-4.3,0.8-5.9,2.3c-1.6,1.5-2.4,3.4-2.4,5.8s0.8,4.3,2.4,5.9
					C439.6,147.1,441.5,147.9,443.7,147.9z"/>
				<path fill="#570930" d="M477.1,148.3c-2.4,2.3-5.3,3.4-8.7,3.4c-3.5,0-6.4-1.1-8.7-3.4c-2.4-2.3-3.5-5.1-3.5-8.6
					c0-3.4,1.2-6.3,3.5-8.6c2.4-2.3,5.3-3.4,8.7-3.4c3.5,0,6.4,1.1,8.7,3.4c2.4,2.3,3.5,5.1,3.5,8.6
					C480.6,143.1,479.4,146,477.1,148.3z M474.2,133.8c-1.6-1.6-3.5-2.5-5.8-2.5c-2.3,0-4.3,0.8-5.8,2.5c-1.6,1.6-2.4,3.6-2.4,6
					s0.8,4.3,2.4,6c1.6,1.6,3.5,2.5,5.8,2.5c2.3,0,4.3-0.8,5.8-2.5c1.6-1.6,2.4-3.6,2.4-6S475.8,135.4,474.2,133.8z"/>
				<path fill="#570930" d="M503.6,128.3h3.9v23.2h-4.3l-13.2-16.9v16.9h-3.9v-23.2h3.9l13.5,17.3V128.3z"/>
				<path fill="#570930" d="M523.3,131.9v19.6h-3.9v-19.6h-7.1v-3.6h18v3.6H523.3z"/>
				<path fill="#570930" d="M551.5,128.3v3.7h-12.4v6.1h11.1v3.5h-11.1v6.2h12.8v3.7h-16.7v-23.2H551.5z"/>
				<path fill="#570930" d="M561.4,151.5h-3.9v-23.2h6.1l7,14.6l7-14.6h6.1v23.2h-3.9v-18.1l-8.1,16.1h-2.2l-8.1-16.1V151.5z"/>
				<path fill="#570930" d="M606.5,130.3c1.6,1.3,2.4,3.4,2.4,6.2c0,2.8-0.8,4.9-2.5,6.2c-1.7,1.3-4.2,2-7.6,2h-4.1v6.8h-3.9v-23.2
					h8C602.3,128.3,604.9,129,606.5,130.3z M603.7,139.9c0.8-0.8,1.2-2,1.2-3.6c0-1.6-0.5-2.7-1.5-3.4c-1-0.7-2.6-1-4.7-1h-4v9.3
					h4.6C601.4,141.1,602.9,140.7,603.7,139.9z"/>
				<path fill="#570930" d="M633.6,148.3c-2.4,2.3-5.3,3.4-8.7,3.4c-3.5,0-6.4-1.1-8.7-3.4c-2.4-2.3-3.5-5.1-3.5-8.6
					c0-3.4,1.2-6.3,3.5-8.6c2.4-2.3,5.3-3.4,8.7-3.4c3.5,0,6.4,1.1,8.7,3.4c2.4,2.3,3.5,5.1,3.5,8.6
					C637.1,143.1,635.9,146,633.6,148.3z M630.7,133.8c-1.6-1.6-3.5-2.5-5.8-2.5s-4.3,0.8-5.8,2.5c-1.6,1.6-2.4,3.6-2.4,6
					s0.8,4.3,2.4,6c1.6,1.6,3.5,2.5,5.8,2.5s4.3-0.8,5.8-2.5c1.6-1.6,2.4-3.6,2.4-6S632.3,135.4,630.7,133.8z"/>
				<path fill="#570930" d="M661.2,135.8c0,3.8-1.7,6.2-5,7.2l6.1,8.4h-5l-5.6-7.8h-5.2v7.8h-3.9v-23.2h8.7c3.5,0,6.1,0.6,7.6,1.8
					C660.4,131.3,661.2,133.2,661.2,135.8z M656,139.1c0.8-0.7,1.2-1.8,1.2-3.3c0-1.5-0.4-2.6-1.2-3.1c-0.8-0.6-2.3-0.8-4.4-0.8h-5
					v8.3h4.9C653.7,140.1,655.2,139.8,656,139.1z"/>
				<path fill="#570930" d="M670.7,146.2l-2.3,5.3h-4.2l10.2-23.2h4.2l10.2,23.2h-4.2l-2.3-5.3H670.7z M680.8,142.6l-4.2-9.6
					l-4.2,9.6H680.8z M678.3,126.3h-3.4l3.5-4.8l3.9,1.6L678.3,126.3z"/>
				<path fill="#570930" d="M710.1,128.3h3.9v23.2h-4.3l-13.2-16.9v16.9h-3.9v-23.2h3.9l13.5,17.3V128.3z"/>
				<path fill="#570930" d="M737.4,128.3v3.7H725v6.1h11.1v3.5H725v6.2h12.8v3.7h-16.7v-23.2H737.4z"/>
				<path fill="#570930" d="M746.7,146.2l-2.3,5.3h-4.2l10.2-23.2h4.2l10.2,23.2h-4.2l-2.3-5.3H746.7z M756.7,142.6l-4.2-9.6
					l-4.2,9.6H756.7z"/>
			</g>
			<g>
				<path fill="#570930" d="M64.6,2.3v15.3H15.6v25.5h43.9v14.5H15.6v25.8h50.5v15.3h-66V2.3H64.6z"/>
				<path fill="#570930" d="M192.2,15c8.8,8.4,13.2,20.1,13.2,35.1c0,15-4.3,26.8-12.9,35.6c-8.6,8.7-21.7,13.1-39.4,13.1h-30.4V2.3
					h31.5C170.7,2.3,183.4,6.6,192.2,15z M189.8,50.5c0-22.1-12-33.1-36.1-33.1h-15.5v66h17.2c11.1,0,19.6-2.8,25.5-8.3
					C186.9,69.5,189.8,61.3,189.8,50.5z"/>
				<path fill="#570930" d="M275.2,76.8l-9.2,21.9h-16.5l40.4-96.4h16.5l40.4,96.4h-16.5l-9.2-21.9H275.2z M314.9,61.8l-16.7-39.7
					l-16.7,39.7H314.9z"/>
				<path fill="#570930" d="M465.2,2.3h15.5v96.4h-16.8l-51.9-70.3v70.3h-15.5V2.3h15.5l53.3,72V2.3z"/>
				<path fill="#570930" d="M584.8,84c5.3,0,9.9-0.9,13.8-2.8c3.8-1.9,7.9-4.9,12.1-9l10,10.8c-9.7,11.3-21.5,17-35.4,17
					c-13.9,0-25.4-4.7-34.5-14.1c-9.1-9.4-13.7-21.2-13.7-35.6s4.7-26.3,14-35.9C560.4,4.8,572.1,0,586.3,0
					c14.2,0,26.1,5.5,35.6,16.5l-9.8,11.3c-4.4-4.4-8.5-7.5-12.4-9.2c-3.9-1.7-8.5-2.6-13.7-2.6c-9.3,0-17.1,3.2-23.4,9.4
					c-6.3,6.3-9.4,14.3-9.4,24.1c0,9.8,3.1,18,9.4,24.5C568.8,80.7,576.3,84,584.8,84z"/>
				<path fill="#570930" d="M751.2,85.4c-9.3,9.5-20.7,14.3-34.4,14.3c-13.6,0-25.1-4.8-34.4-14.3c-9.3-9.5-13.9-21.4-13.9-35.6
					c0-14.2,4.6-26.1,13.9-35.6C691.7,4.8,703.2,0,716.8,0c13.6,0,25.1,4.8,34.4,14.3c9.3,9.5,13.9,21.4,13.9,35.6
					C765.1,64.1,760.4,75.9,751.2,85.4z M739.8,25.1c-6.3-6.8-13.9-10.2-23-10.2c-9.1,0-16.8,3.4-23,10.2
					c-6.3,6.8-9.4,15.1-9.4,24.8c0,9.7,3.1,17.9,9.4,24.8c6.3,6.8,13.9,10.2,23,10.2c9.1,0,16.8-3.4,23-10.2
					c6.3-6.8,9.4-15.1,9.4-24.8C749.2,40.2,746.1,31.9,739.8,25.1z"/>
			</g>
		</g>
	</g>
</g>
</svg>
