<?xml version="1.0" encoding="utf-8"?>
<!-- Generator: Adobe Illustrator 18.1.0, SVG Export Plug-In . SVG Version: 6.00 Build 0)  -->
<svg version="1.1" id="Layer_1" xmlns="http://www.w3.org/2000/svg" xmlns:xlink="http://www.w3.org/1999/xlink" x="0px" y="0px"
	 viewBox="0 0 319.2 364.8" enable-background="new 0 0 319.2 364.8" xml:space="preserve">
<g>
	<path fill="#570930" d="M98.5,67.8c0,0-0.2,0-0.3,0c-5.7,0-27.6,0-27.6,0v110.2l98.8-69C145.8,95.1,122.2,81.4,98.5,67.8z"/>
	<path fill="#570930" d="M226.9,68.4H150c14,8,28,16,42,24.1C199.6,87.3,226.9,68.4,226.9,68.4z"/>
	<path fill="#570930" d="M-1.4-1.1v365.9h320.6V-1.1H-1.4z M275.8,64.8c0,0-54.4,38.6-59.7,42.4l0.2,0.1c10.2,6,59.5,34.7,59.5,34.7
		v19.2L85.5,292.5h189.3v25.9H44.8V42.3h231V64.8z"/>
	<path fill="#570930" d="M70.4,270.3L243,151.7c0,0-34.9-20.1-49.3-28.4c-41.2,28.8-82.3,57.5-123.4,86.1c0,19.2,0,38.4,0,57.5
		L70.4,270.3z"/>
</g>
</svg>
