<?xml version="1.0" encoding="utf-8"?>
<!-- Generator: Adobe Illustrator 18.1.0, SVG Export Plug-In . SVG Version: 6.00 Build 0)  -->
<svg version="1.1" id="Layer_1" xmlns="http://www.w3.org/2000/svg" xmlns:xlink="http://www.w3.org/1999/xlink" x="0px" y="0px"
	 viewBox="266 351 80 90" enable-background="new 266 351 80 90" xml:space="preserve">
<g>
	<path fill="#FFFFFF" d="M335.7,428l-5.2-10c-0.3-0.5-0.9-0.7-1.4-0.3c-7,5.4-15,8.5-23.1,8.5c-8.1,0-16.1-3.1-23.1-8.5
		c-0.5-0.4-1.1-0.2-1.4,0.3l-5.2,10c-0.2,0.4-0.1,0.9,0.3,1.2c8.8,6.5,18.3,9.8,29.5,9.8c11.2,0,20.7-3.2,29.5-9.8
		C335.8,429,336,428.5,335.7,428z M278.3,428.2l4.3-8.3c7.1,5.2,15.2,8.2,23.4,8.2s16.3-3,23.4-8.2l4.3,8.3
		c-8.3,6-17.2,8.9-27.7,8.9C295.5,437.1,286.6,434.2,278.3,428.2z M278.3,428.2l4.3-8.3c7.1,5.2,15.2,8.2,23.4,8.2s16.3-3,23.4-8.2
		l4.3,8.3c-8.3,6-17.2,8.9-27.7,8.9C295.5,437.1,286.6,434.2,278.3,428.2z"/>
	<g>
		<g>
			<g>
				<path id="c" fill="#FFFFFF" d="M307,415.3c-14.1,0-25.5-11.4-25.5-25.5c0-0.5-0.4-0.9-0.9-0.9c-0.5,0-0.9,0.4-0.9,0.9
					c0,15.2,12.3,27.4,27.4,27.4c0.5,0,0.9-0.4,0.9-0.9C307.9,415.7,307.5,415.3,307,415.3z"/>
			</g>
		</g>
		<path fill="#FFFFFF" d="M330,367.2l2.5-0.7c0.8-0.2,1.4-1,1.4-1.8s-0.6-1.6-1.4-1.8l-4-1l-1.2-6.3c-0.2-0.9-1-1.5-1.9-1.5
			s-1.7,0.6-1.9,1.5l-1.2,5.9c-5-2.8-10.6-4.4-16.5-4.4c-5,0-9.9,1.1-14.3,3.2c-0.8-0.9-1.9-1.5-3.2-1.5c-2.3,0-4.2,1.9-4.2,4.2
			c0,0.6,0.2,1.2,0.4,1.8c-7.7,6.3-12.3,15.8-12.3,26c0,18.5,15,33.6,33.6,33.6c18.5,0,33.6-15,33.6-33.6
			C339.6,381.8,336.1,373.4,330,367.2z M325.5,355.9l1.5,7.5l5.1,1.3l-4.2,1.1c0,0,0,0,0,0l-0.2,0.1l-0.7,0.2l-0.1,0.6c0,0,0,0,0,0
			l-1.4,6.9l-1.5-7.5l-5.1-1.3l0,0l5.1-1.3L325.5,355.9z M325.5,355.9l1.5,7.5l5.1,1.3l-4.2,1.1c0,0,0,0,0,0l-0.2,0.1l-0.7,0.2
			l-0.1,0.6c0,0,0,0,0,0l-1.4,6.9l-1.5-7.5l-5.1-1.3l0,0l5.1-1.3L325.5,355.9z M288.5,360.7c0.9,0,1.7,0.5,2,1.3c0,0,0,0,0,0
			c0.1,0.1,0.1,0.3,0.2,0.4c0,0,0,0,0,0.1c0,0.2,0.1,0.3,0.1,0.5c0,0,0,0,0,0c0,1.2-1,2.3-2.3,2.3c-0.2,0-0.3,0-0.5-0.1
			c0,0-0.1,0-0.1,0c-0.1,0-0.2-0.1-0.4-0.1c0,0-0.1,0-0.1-0.1c-0.1-0.1-0.2-0.1-0.3-0.2c0,0,0,0,0,0c-0.1-0.1-0.2-0.2-0.3-0.3
			c0,0,0,0,0,0c-0.3-0.4-0.5-0.9-0.5-1.4C286.2,361.7,287.2,360.7,288.5,360.7z M288.5,360.7c0.9,0,1.7,0.5,2,1.3c0,0,0,0,0,0
			c0.1,0.1,0.1,0.3,0.2,0.4c0,0,0,0,0,0.1c0,0.2,0.1,0.3,0.1,0.5c0,0,0,0,0,0c0,1.2-1,2.3-2.3,2.3c-0.2,0-0.3,0-0.5-0.1
			c0,0-0.1,0-0.1,0c-0.1,0-0.2-0.1-0.4-0.1c0,0-0.1,0-0.1-0.1c-0.1-0.1-0.2-0.1-0.3-0.2c0,0,0,0,0,0c-0.1-0.1-0.2-0.2-0.3-0.3
			c0,0,0,0,0,0c-0.3-0.4-0.5-0.9-0.5-1.4C286.2,361.7,287.2,360.7,288.5,360.7z M306,422.4c-17.5,0-31.7-14.2-31.7-31.7
			c0-9.6,4.3-18.5,11.6-24.5c0,0,0.1,0.1,0.1,0.1c0.1,0,0.1,0.1,0.2,0.1c0.2,0.1,0.4,0.2,0.6,0.3c0.1,0,0.1,0,0.2,0.1
			c0.2,0.1,0.4,0.2,0.6,0.2c0,0,0.1,0,0.1,0c0.2,0,0.5,0.1,0.7,0.1c0,0,0,0,0,0c2.3,0,4.2-1.9,4.2-4.2c0,0,0,0,0,0l0,0
			c0-0.3,0-0.5-0.1-0.7c0,0,0-0.1,0-0.1c0,0,0,0,0,0c4.2-2,8.8-3,13.5-3c5.1,0,9.9,1.2,14.3,3.4l-1.9,0.5c-0.1,0-0.3,0.1-0.4,0.2
			c-0.6,0.3-1,1-1,1.7l0,0l0,0c0,0.9,0.6,1.6,1.4,1.8l4,1l0.9,4.4l0.4,1.9c0,0.1,0,0.1,0.1,0.2c0.2,0.8,1,1.3,1.8,1.3l0,0l0,0
			c0.3,0,0.7-0.1,0.9-0.2c0,0,0,0,0,0c0.1,0,0.2-0.1,0.2-0.2c0,0,0,0,0,0c0.3-0.3,0.5-0.6,0.6-1.1l1-5.1l0.1-0.4
			c5.9,5.9,9.2,13.8,9.2,22.3C337.7,408.2,323.5,422.4,306,422.4z"/>
		<g>
			<g>
				<path id="a" fill="#FFFFFF" d="M305.1,372l1.2,5.9l4,1.1l-4,1.1l-1.2,5.9L304,380l-4-1.1l4-1.1L305.1,372 M305.1,372l1.2,5.9
					l4,1.1l-4,1.1l-1.2,5.9L304,380l-4-1.1l4-1.1L305.1,372 M305.1,370.1c-0.9,0-1.7,0.6-1.9,1.5l-0.9,4.7l-2.9,0.8
					c-0.8,0.2-1.4,1-1.4,1.8c0,0.9,0.6,1.6,1.4,1.8l2.9,0.8l0.9,4.7c0.2,0.9,1,1.5,1.9,1.5s1.7-0.6,1.9-1.5l0.9-4.7l2.9-0.8
					c0.8-0.2,1.4-1,1.4-1.8c0-0.9-0.6-1.6-1.4-1.8l-2.9-0.8l-0.9-4.7C306.8,370.8,306.1,370.1,305.1,370.1"/>
			</g>
		</g>
	</g>
</g>
</svg>
