<?xml version="1.0" encoding="utf-8"?>
<!-- Generator: Adobe Illustrator 18.1.0, SVG Export Plug-In . SVG Version: 6.00 Build 0)  -->
<svg version="1.1" id="Layer_1" xmlns="http://www.w3.org/2000/svg" xmlns:xlink="http://www.w3.org/1999/xlink" x="0px" y="0px"
	 viewBox="0 0 224.6 280.2" enable-background="new 0 0 224.6 280.2" xml:space="preserve">
<rect x="-207.3" y="-320.5" fill="#E2711B" width="1280" height="800"/>
<g>
	<g>
		<path fill="#FFFFFF" d="M148.5,215.6c2.8-0.7,4.8-2.8,5.5-5.3c0.7-2.5,0-5.1-1.6-6.5c-1.6-1.4-3.9-1.8-6.2-0.9
			c-4.8,1.6-6,5.5-5.3,8.3c0.7,2.8,3,4.4,6.2,4.4C147.6,215.8,148,215.6,148.5,215.6z M145.3,210.1c-0.2-0.9,0.5-2.1,2.5-2.8l0,0
			c0.2,0,0.7-0.2,0.9-0.2s0.5,0,0.5,0.2c0.2,0.2,0.5,0.9,0.2,1.8c-0.2,0.7-0.7,1.6-2.1,2.1C146.4,211.2,145.5,211,145.3,210.1z"/>
		<path fill="#FFFFFF" d="M179.7,210.1L179.7,210.1c-3.5-1.8-7.2-0.7-9,2.8c-2.1,3.5-1.6,9,2.8,11.3c1.2,0.7,2.1,0.9,3.2,0.9
			c1.2,0,2.1-0.2,3-0.9c2.5-1.4,3.9-4.4,3.9-7.6C183.6,213.8,182.2,211.2,179.7,210.1z M177.3,220.2c-0.5,0.2-1.2,0.2-1.8,0
			c-2.1-1.2-1.8-3.7-0.9-5.1c0.5-0.9,1.2-1.2,1.6-1.2c0.5,0,0.9,0.2,1.2,0.2c0.9,0.5,1.6,1.4,1.6,2.5
			C179,218.2,178.3,219.5,177.3,220.2z"/>
		<path fill="#FFFFFF" d="M170.7,205.7c-0.7-2.8-2.8-4.8-5.5-5.5c-4.4-1.2-7.8,1.4-8.8,4.8c-1.2,3.7,0.2,8.1,5.3,9.7
			c0.9,0.2,1.8,0.5,2.5,0.5c1.6,0,3.2-0.7,4.6-1.8C170.4,211.5,171.3,208.5,170.7,205.7z M165.3,209.8c-0.7,0.5-1.4,0.7-2.5,0.2
			c-2.3-0.7-2.8-2.5-2.3-3.9c0.2-0.5,0.7-1.8,2.3-1.8c0.2,0,0.7,0,0.9,0.2l0,0c1.6,0.5,2.1,1.4,2.3,2.3
			C166.5,208,166,209.4,165.3,209.8z"/>
		<path fill="#FFFFFF" d="M157,219.3L157,219.3c-5.5-0.9-12.5,3.9-13.6,9.9c-0.5,2.1-1.2,8.8,9.5,11.5c1.6,0.5,3,0.5,4.2,0.5
			c3.7,0,5.8-1.4,6.9-2.5c2.1-2.3,2.5-6.2,1.2-10.4C164,224.4,161,220,157,219.3z M160.7,235.5c-1.2,1.2-3.5,1.4-6.7,0.7
			c-3.2-0.9-6.9-2.5-6-6c0.7-3.2,4.6-6.5,7.6-6.5c0.2,0,0.5,0,0.7,0c1.4,0.2,3.7,2.5,4.8,6C161.6,232.2,161.6,234.5,160.7,235.5z"/>
		<path fill="#FFFFFF" d="M67.7,216.5c-6.2,0.9-11.5,7.2-10.9,12.9c0.2,1.6,1.6,6.9,10.2,6.9c0.7,0,1.4,0,2.1,0
			c7.6-0.5,10.4-3.2,11.5-5.5c1.2-2.8,0.7-6-1.4-9C76.7,218.6,72.3,215.8,67.7,216.5z M76.2,228.8c-0.7,1.6-3.5,2.8-7.6,3
			c-2.1,0.2-6.9,0.2-7.2-2.8c-0.2-3,2.8-7.2,6.9-7.6c0.2,0,0.5,0,0.9,0c2.5,0,4.8,1.6,6.2,3.5C76.5,226,76.9,227.6,76.2,228.8z"/>
		<path fill="#FFFFFF" d="M83.6,201.3c-3.2-1.6-5.3-0.7-6.2,0c-1.8,1.2-2.8,3.7-2.3,6.2c0.5,3.2,2.5,6,5.3,6.9
			c0.9,0.5,1.8,0.5,2.8,0.5c2.3,0,4.2-1.2,5.1-3.2C89.6,208.5,88.5,203.6,83.6,201.3z M83.8,209.8c-0.2,0.2-0.5,0.9-1.8,0.5
			c-1.6-0.7-2.3-2.1-2.5-3.2c-0.2-0.9,0.2-1.8,0.5-1.8h0.2c0.2,0,0.7,0,1.2,0.5C84.1,206.6,84.5,208.7,83.8,209.8z"/>
		<path fill="#FFFFFF" d="M63.3,214.7c0.5,0,0.7,0,1.2,0c4.4-0.9,6-5.3,5.3-9c-0.7-4.2-4.2-6.7-8.1-6.2c0,0,0,0-0.2,0
			c-3.7,0.9-6,4.6-5.1,8.8C57.1,212.4,59.8,214.7,63.3,214.7z M62.4,204.3c2.1-0.2,2.5,2.1,2.5,2.5c0,0.2,0.5,3-1.6,3.5
			c-1.6,0.2-2.3-1.6-2.5-2.5C60.8,207.1,60.5,204.8,62.4,204.3z"/>
		<path fill="#FFFFFF" d="M43,206.8c-2.3,1.4-3.7,3.5-3.7,6.2c0.2,3,2.1,6.2,4.8,7.4c0.9,0.5,1.8,0.7,2.8,0.7c1.6,0,3-0.5,4.4-1.6
			c3.2-2.5,4.2-6.7,2.1-9.9C51.5,206.4,47.4,204.5,43,206.8z M48.5,215.6c-0.7,0.7-1.6,0.7-2.3,0.5c-1.2-0.5-2.1-2.1-2.3-3.5
			c0-0.9,0.2-1.6,1.2-2.1c0.7-0.2,1.2-0.5,1.8-0.5c1.2,0,2.1,0.7,2.5,1.4C49.9,212.4,50.8,214,48.5,215.6z"/>
		<path fill="#FFFFFF" d="M127.7,94.9c8.3,1.4,11.1-10.6,2.8-11.8C122.4,81.7,119.6,93.7,127.7,94.9z"/>
		<path fill="#FFFFFF" d="M198.6,157.7c-8.5-19.6-33.5-39.9-40.2-45.3c0.5-0.7,1.2-1.4,1.6-2.3c6-9.2,3.9-24.2,3-29.8
			c3.2-1.2,9.2-3.9,11.3-9.5c1.8-4.6,0.7-9.9-3.5-15.9c-3.9-5.8-8.5-8.8-13.2-8.8h-0.2c-6.2,0-11.3,5.3-13.6,8.1
			c-3.9-2.3-12.9-7.2-26.3-7.8c-13.4-0.7-21.7,3.7-25.4,6.5c-2.1-3.5-6.2-9.2-12.5-10.6c-4.6-0.9-9.5,0.7-14.1,5.3
			c-4.4,4.2-6.2,8.5-5.5,12.9c1.2,7.2,9,12.2,12.9,14.3c-2.3,4.2-6.5,13.4-4.6,22.6c0.9,6.5,5.1,11.1,9,14.1
			c-5.5,3.2-17.1,9.7-24.7,14.8c-11.8,7.6-30.2,26.5-30.2,44.8c-0.5,15,9.5,22.6,13.9,25.2c-5.3,6-7.8,13.4-7.8,20.8
			c0.2,15.7,13.2,32.8,41.3,32.8c0.2,0,0.5,0,0.7,0c15.9,0,28.2-5.8,34.2-16.4c0.9-1.8,1.8-3.7,2.5-5.5c1.6,0.5,3.7,0.9,6.5,0.9
			c2.1,0,4.4-0.2,6.7-1.2c0.7,3.5,1.8,6.9,3.7,10.2c6,10.9,17.3,16.9,31.2,16.9c26.3,0,44.6-20.1,45-38.8c0.2-4.6-0.9-9.5-3.5-13.9
			C202.1,195.8,207.6,178,198.6,157.7z M73,96.7c-2.1-10.4,5.1-21.5,5.1-21.7c0.5-0.5,0.5-1.4,0.2-1.8c-0.2-0.7-0.7-1.2-1.4-1.4
			c-3.2-1.4-11.5-6.2-12.7-12C63.8,57,65.1,54,68.4,51c3.5-3.2,6.9-4.6,10.2-4.2c6.5,1.4,10.4,10.4,10.4,10.6
			c0.2,0.7,0.9,1.2,1.6,1.4c0.7,0.2,1.6-0.2,2.1-0.7c0,0,7.6-7.8,24.2-7.2c15.9,0.9,25.6,8.1,25.6,8.3c0.5,0.5,1.2,0.5,1.8,0.5
			s1.2-0.5,1.6-0.9c0,0,5.1-7.8,11.3-7.8c3.5,0,6.5,2.1,9.5,6.7c3.2,4.6,4.2,8.5,3,11.5c-2.1,5.3-10.2,7.2-10.2,7.2
			c-0.7,0.2-1.2,0.5-1.4,0.9c-0.2,0.5-0.5,1.2-0.2,1.8c0,0.2,4.2,18.9-2.1,28.4c-4.6,7.4-13.6,10.2-18.7,11.1
			c0.9-3.7,1.2-7.6,0.5-11.8c-1.4-8.5-13.2-13.4-24.5-14.1c-4.2-0.2-9,0-13.4,0.9c5.5-3.5,1.8-12.2-5.3-10.6s-5.3,11.8,1.4,11.8
			c-4.8,1.8-8.8,4.8-10.4,9.5c-0.7,2.1-1.2,4.4-1.4,6.5C80.8,109,74.2,104.3,73,96.7z M100.2,98.3c-2.5,5.3,4.4,14.3,9.7,13.9
			c6,0,13.2-8.8,9.7-13.9c7.6,1.8,12.9,5.3,13.6,9.2c0.7,4.4,0.2,8.5-1.2,12.2c-0.2,0.2-0.5,0.7-0.5,1.2c-0.9,1.8-1.8,3.5-3.2,5.1
			c-4.4,4.8-10.6,7.2-18.2,6.7c-7.4-0.5-14.1-4.2-18-9.9c-3.5-5.1-4.2-11.3-1.8-17.3C91.5,102,95.4,99.7,100.2,98.3z M69.8,245.4
			c-25.2,0-36.7-14.3-36.7-28.2c-0.2-14.1,11.5-28.4,34.2-28.9c14.5-0.2,26.3,5.8,32.6,16.4c5.1,8.5,5.3,18.9,0.9,26.8
			C95.2,240.5,84.3,245.6,69.8,245.4z M119.4,223.2c-4.8,2.1-9.2,1.2-11.5,0.5c1.2-7.2-0.5-14.8-4.4-21.5
			c-6.7-11.3-18.9-18-33.5-18.5c1.6-10.2,10.4-25.6,10.4-25.9c0.7-1.2,0.2-2.5-0.9-3.2c-1.2-0.7-2.5-0.2-3.2,0.9
			c-0.5,0.7-9.5,17.1-11.1,28.2c-11.1,0.5-19.6,4.2-25.9,9.5c-2.3-1.2-13.2-7.4-12.7-21.9c0-17.1,18.9-35.1,28.2-41.1
			c8.8-5.8,22.6-13.6,26.5-15.7c1.4,0.7,2.3,1.2,3,1.4c0.5,3.5,1.6,6.7,3.7,9.5c4.6,6.9,12.7,11.3,21.5,12l0,0c0.7,0,1.2,0,1.8,0
			c8.1,0,15.2-3,20.1-8.3c1.6-1.6,2.8-3.5,3.7-5.5c3.7-0.5,12.7-2.1,19.6-8.1c5.8,4.6,30.9,25.2,39.2,43.9c8.1,18,3.7,33.2-0.5,39
			c-5.5-6.5-15-11.3-29.8-12c-3-0.2-6,0-8.5,0.2c0.5-13.4-5.5-29.8-5.8-30.7c-0.5-1.2-1.8-1.8-3-1.4c-1.2,0.5-1.8,1.8-1.4,3
			c0,0.2,6.2,17.1,5.5,29.6c-15,2.5-22.6,11.1-26.1,16.6C121,209.6,119.2,216.5,119.4,223.2z M154.7,250.5
			c-12.2,0-21.9-5.1-27.2-14.5c-5.1-9-4.6-20.8,0.9-29.6c6.2-9.9,17.5-15.2,32.3-15.2c0.9,0,2.1,0,3.2,0
			c20.1,0.9,31.9,10.4,31.4,24.9C194.9,232.7,178.5,250.5,154.7,250.5z"/>
	</g>
</g>
</svg>
