<?xml version="1.0" encoding="utf-8"?>
<!-- Generator: Adobe Illustrator 18.1.0, SVG Export Plug-In . SVG Version: 6.00 Build 0)  -->
<svg version="1.1" id="Layer_1" xmlns="http://www.w3.org/2000/svg" xmlns:xlink="http://www.w3.org/1999/xlink" x="0px" y="0px"
	 viewBox="0 0 250.9 280.2" enable-background="new 0 0 250.9 280.2" xml:space="preserve">
<rect x="-496.4" y="-320.5" fill="#E2711B" width="1280" height="800"/>
<g>
	<g>
		<path fill="#FFFFFF" d="M26.1,163.4c-4.8,0.5-7.2,4.8-6.9,9c0.2,4.4,3.2,7.4,7.2,7.4c0.2,0,0.5,0,0.5,0c4.8-0.5,7.2-4.8,6.9-9
			C33.4,166.2,30.2,163,26.1,163.4z M26.5,175.2c-2.3,0.2-2.8-2.5-2.8-3c0-1.4,0.2-3.9,2.5-4.2s2.8,2.5,2.8,3
			C29.3,172.4,28.8,175,26.5,175.2z"/>
		<path fill="#FFFFFF" d="M53.3,199.7c-5.1,0-7.8,3.9-7.8,7.8c0,2.1,0.7,4.2,2.3,5.5c1.2,1.2,3.2,2.5,6.5,2.5c3,0,4.8-1.2,5.8-2.1
			c1.4-1.2,2.1-3,2.1-4.8C62.1,204.3,58.6,199.7,53.3,199.7z M57,210.1c-0.5,0.5-1.4,0.7-2.5,0.7c-1.4,0-2.5-0.5-3.2-1.2
			c-0.7-0.7-0.9-1.4-0.9-2.3c0-1.2,0.7-3.2,3.2-3.2c2.8,0,4.2,2.5,4.2,4.2C57.5,208.9,57.5,209.6,57,210.1z"/>
		<path fill="#FFFFFF" d="M102,204.3L102,204.3c-5.3,0-8.1,4.6-8.1,9c0,2.3,0.7,4.4,2.1,6c1.2,1.4,3,2.8,6.5,2.8
			c5.5,0,8.1-3.9,8.3-7.8C110.8,209.6,107.6,204.8,102,204.3z M102.5,217.7c-1.4,0-2.3-0.5-3-1.2c-0.7-0.7-0.9-1.8-0.9-3
			c0-1.6,0.9-4.4,3.2-4.4c2.8,0.2,4.2,3,4.2,5.3C105.9,215.4,105.5,217.7,102.5,217.7z"/>
		<path fill="#FFFFFF" d="M214.7,150.7c-4.4,0.5-7.4,4.6-7.2,8.5c0.2,3,2.1,6.2,7.4,6.2c2.8,0,5.1-1.4,6.2-3.5
			c1.4-2.5,1.2-5.8-0.5-8.3C219.3,151.4,217,150.5,214.7,150.7z M217,159.7c-0.2,0.2-0.5,1.2-2.1,1.2c-2.5,0-2.8-1.4-2.8-1.8
			c0-1.6,1.2-3.5,3-3.7c0,0,0,0,0.2,0s0.9,0,1.4,0.9C217.4,157.2,217.4,158.8,217,159.7z"/>
		<path fill="#FFFFFF" d="M174.5,137.1c0,2.1,0.7,3.9,2.3,5.5c1.2,1.2,3,2.5,6.5,2.5l0,0c4.2-0.2,6.9-3.5,6.9-7.4
			c-0.2-3.9-3.2-7.8-8.1-7.8C177.3,129.7,174.5,133.4,174.5,137.1z M185.6,137.8c0,0.9-0.2,2.5-2.3,2.8c-1.4,0-2.3-0.5-3-1.2
			c-0.5-0.7-0.9-1.4-0.9-2.3c0-0.5,0.2-2.8,3-2.8C184.4,134.4,185.6,136.4,185.6,137.8z"/>
		<path fill="#FFFFFF" d="M224.1,103.2c-2.8-0.2-5.3,0.9-6.7,3.2c-1.6,2.5-1.6,6,0,8.5c1.4,2.3,3.7,3.5,6.5,3.5c0.2,0,0.5,0,0.7,0
			c4.2,0,7.4-2.8,7.4-6.9C232.2,107.8,229.4,103.4,224.1,103.2z M224.4,113.8c-1.4,0-2.3-0.2-2.8-1.4c-0.7-1.2-0.7-2.8,0-3.7
			c0.5-0.7,1.2-1.2,2.1-1.2h0.2c2.5,0.2,3.5,2.1,3.5,3.7C227.4,112.2,226.9,113.8,224.4,113.8z"/>
		<path fill="#FFFFFF" d="M175,97.4c0.2,0,0.5,0,0.7,0c5.8-0.2,8.3-3.9,8.1-7.6c0-3.9-3.5-8.3-8.8-8.3c-3.2,0-6,1.6-7.6,4.4
			c-1.4,2.5-1.4,5.5,0,7.8C168.3,95.3,170.3,97.4,175,97.4z M171.5,88.2c0.5-0.7,1.4-1.8,3.5-1.8c2.5,0,4.2,2.1,4.2,3.7
			c0,2.3-2.3,2.8-3.7,2.8c-1.8,0-3.2-0.5-3.9-1.4C170.8,90.5,170.8,89.3,171.5,88.2z"/>
		<path fill="#FFFFFF" d="M162,175.7c-4.6-4.6-8.8-8.5-11.5-11.1c-4.6-4.6-16.6-16.4-28.2-27.9c19.6-10.9,23.3-16.6,22.6-19.9
			c-1.4-4.2-7.8-5.5-14.8-6.9c-2.3-0.5-6-1.2-7.2-1.8c0.2-1.6,2.1-6.2,3.2-9.2c3.5-8.5,5.1-12.9,2.8-15.2c-2.1-2.1-6.9-1.4-14.3-0.2
			c-2.3,0.5-6,0.9-7.2,0.9c-0.9-0.9-2.8-3.5-4.2-5.8c-5.1-7.4-8.5-12-11.5-12.5c-3.5-0.5-5.5,4.2-9.2,13.6
			c-1.6,3.7-3.7,9.2-4.8,10.4c-1.4,0-5.5-2.3-8.5-3.7c-7.8-3.9-12.7-6.2-15.7-4.2c-3.2,2.1-2.3,8.1-1.2,15.5c0.5,3.2,1.2,7.8,0.9,9
			c-0.7,1.8-7.6,5.8-11.5,8.3c-7.4,4.4-9.9,6.2-9.9,8.5c0,2.8,3.5,4.2,13.6,7.6c3.5,1.2,8.8,3,10.2,3.9c0,1.6-1.4,7.4-2.5,11.1
			c-3,10.4-3.7,14.3-1.4,16.2c2.5,1.6,6.7-0.2,14.5-4.2c3.7-1.8,9.7-5.1,11.1-4.6c1.6,0.7,4.4,8.5,5.8,12.2
			c2.5,7.2,3.7,10.4,6.5,10.4c1.4,0,3.9,0,16.2-24.2c8.1,9.5,16.6,19.2,22.2,24.7c5.1,5.1,49.6,49.6,57.5,53.1
			c1.4,0.7,2.8,0.9,4.2,0.9c3,0,6.2-1.4,8.3-3.9c3.2-3.7,3.7-8.3,1.2-12.5C196,208.7,180.5,193.5,162,175.7z M102.5,148.2
			c-4.4,8.8-9.9,18.7-12.5,22.2c-0.7-1.6-1.6-4.2-2.5-6.2c-3.2-8.8-5.5-14.3-9-15.2c-3-0.7-7.4,1.4-14.3,5.1c-3,1.6-7.2,3.7-9.2,4.2
			c0.2-2.3,1.6-7.4,2.5-10.9c2.5-9.2,3.5-12.9,2.1-14.8c-1.2-1.6-4.4-3-12.5-5.5c-3-0.9-7.4-2.5-9.5-3.5c1.6-1.2,4.6-3,6.7-4.4
			c7.4-4.4,12.2-7.4,13.6-10.4c0.9-2.3,0.2-5.8-0.5-11.5c-0.5-3.2-1.4-9.5-0.9-10.9c1.8-0.2,7.8,2.8,11.1,4.4c6,3,9.2,4.6,11.8,4.2
			c2.8-0.5,4.4-4.2,8.1-13.2c1.4-3.2,3.5-8.8,4.8-10.4c1.8,1.6,6,7.4,8.1,10.2c2.5,3.7,4.2,6,5.3,6.9c1.6,1.2,4.4,0.9,10.4-0.2
			c3-0.5,8.3-1.4,9.9-1.2c0,1.8-2.3,7.2-3.7,10.4c-3,7.2-4.4,10.9-3.2,13.2c1.2,2.3,4.4,3,10.6,4.2c3,0.7,10.2,1.8,11.3,3.5
			c-0.9,2.5-10.4,9.2-21.5,15.2c-10.4-10.2-19.9-19.2-22.2-21l0,0c-3-2.5-7.4-2.1-10.6,0.9c-3,2.8-4.8,7.8-1.8,12.5
			C86.1,128.4,93.7,137.8,102.5,148.2L102.5,148.2z M194.4,223.7c-1.6,1.8-4.4,3-7.2,1.8c-5.3-2.5-36.5-32.6-56.1-52.2
			c-11.5-11.5-39.2-45-43.2-50.3c-1.4-2.3-0.5-4.8,1.2-6.5c0.2-0.2,1.6-1.4,3-1.4c0.5,0,1.2,0.2,1.6,0.7
			c4.8,3.9,42.5,40.9,53.6,51.9c2.8,2.8,6.7,6.7,11.5,11.3C172,191.8,192,211,195,216.5C197.1,220,195.3,222.5,194.4,223.7z"/>
	</g>
</g>
</svg>
