<?xml version="1.0" encoding="utf-8"?>
<!-- Generator: Adobe Illustrator 18.1.0, SVG Export Plug-In . SVG Version: 6.00 Build 0)  -->
<svg version="1.1" id="Layer_1" xmlns="http://www.w3.org/2000/svg" xmlns:xlink="http://www.w3.org/1999/xlink" x="0px" y="0px"
	 viewBox="0 0 250.9 280.2" enable-background="new 0 0 250.9 280.2" xml:space="preserve">
<rect x="-816.6" y="-320.5" fill="#E2711B" width="1280" height="800"/>
<g>
	<path fill="#FFFFFF" d="M233,173.7c0-0.2,0-0.5,0-0.7l0,0c-0.7-6.7-1.6-13.2-2.8-18.2c0-0.2,0-0.5-0.2-0.9
		c-0.7-2.8-1.2-5.1-1.6-6.2c-2.8-7.2-11.8-8.3-19.6-9.5c-4.2-0.5-8.3-1.2-10.2-2.3c-2.3-1.8-2.8-18-3-28.6
		c-0.2-12.9-0.7-25.2-3-30.2c-0.9-1.8-3.2-3-8.1-3.9c-16.2-3.5-55.2-3.7-83.6-3c-14.8,0.7-62.8,2.3-69.3,7.6
		c-1.2,0.9-4.4,3.7-6.2,27c-2.3,32.1-0.5,94,5.5,100.7c2.5,2.5,21.5,6.2,34.4,7.2c0.5,7.6,7.2,14.3,15,14.3
		c7.4,0,13.6-5.5,14.8-12.7h69.3c1.2,7.2,7.4,12.7,14.8,12.7c8.1,0,14.5-6.5,15-14.3c17.5-1.6,33.7-8.1,35.6-9.5
		C234.2,200.3,234.2,186.9,233,173.7z M226.1,157.4c0.9,4.4,1.6,9.7,2.1,14.8c-4.2,0.9-7.4,0-9.2-2.3c-1.8-2.3-2.1-5.5-0.7-8.1
		C219.8,159,222.6,157.4,226.1,157.4z M191,107.7c0.5,13.9,0.7,23.3,2.5,28.4c-14.1,1.6-32.8,2.8-36-0.2c-4.8-4.4-5.5-40.2-2.1-43.9
		c1.6-1.4,8.8-1.4,14.5-1.6c6.7-0.2,14.1-0.2,20.3-1.6C190.8,94.3,190.8,101.2,191,107.7z M30.3,102.9c1.6-18.2,3.9-21,4.4-21.5
		c4.8-3.9,47.8-6.2,87.3-6.5c0.7,6.5,0,21.5-0.9,38.8c-1.8,35.1-3.9,78,3,96H95.2c-1.2-7.2-7.4-12.7-14.8-12.7
		c-4.2,0-8.3,1.8-11.1,4.8c-1.8,1.8-3,3.9-3.5,6.2c-13.4-0.9-29.1-4.6-31.4-6C29.6,195.7,27.8,133.8,30.3,102.9z M80.4,222.2
		c-5.5,0-10.4-4.8-10.4-10.6c-0.2-2.5,0.7-4.8,2.5-6.9c2.1-2.1,4.8-3.5,7.8-3.5c5.5,0,10.4,4.8,10.4,10.4
		C90.8,217.4,86.2,222.2,80.4,222.2z M179.4,222.2c-5.5,0-10.4-4.8-10.4-10.6c-0.2-2.5,0.7-4.8,2.5-6.9c2.1-2.1,4.8-3.5,7.8-3.5
		c5.5,0,10.4,4.8,10.4,10.4C189.8,217.4,185,222.2,179.4,222.2z M227.2,199.1c-1.6,0.9-16.4,7.2-33.5,8.5
		c-1.8-6.5-7.6-11.1-14.5-11.1c-4.2,0-8.3,1.8-11.1,4.8c-2.1,2.3-3.5,5.1-3.7,7.8h-35.6c-7.4-15.2-5.1-61.6-3.5-95.6
		c0.9-17.5,1.6-31.6,0.9-39c31.2,0,58.9,1.4,61.9,4.6c0.5,0.9,0.9,2.8,1.2,4.6c-6,1.4-13.4,1.6-19.9,1.6c-9.2,0.2-14.8,0.5-17.3,2.5
		c-2.3,1.8-3.5,7.8-3.7,18c0,1.2-0.5,27.2,5.8,32.8c2.5,2.3,9.2,3,16.6,3c9.9,0,21.5-1.4,25.9-2.1c2.8,1.6,6.9,2.1,11.5,2.8
		c6.7,0.9,14.1,1.8,15.9,6.5c0.5,0.9,0.7,2.1,1.2,3.2c-4.8,0.5-8.8,2.8-10.9,6.7c-2.3,4.4-1.8,9.7,1.2,13.2c2.3,2.8,5.8,4.2,9.7,4.2
		c1.2,0,2.1-0.2,3.2-0.2C229.3,187.8,229.1,198,227.2,199.1z"/>
</g>
</svg>
