<?xml version="1.0" encoding="iso-8859-1"?>
<!-- Generator: Adobe Illustrator 16.0.0, SVG Export Plug-In . SVG Version: 6.00 Build 0)  -->
<!DOCTYPE svg PUBLIC "-//W3C//DTD SVG 1.1//EN" "http://www.w3.org/Graphics/SVG/1.1/DTD/svg11.dtd">
<svg version="1.1" id="Layer_1" xmlns="http://www.w3.org/2000/svg" xmlns:xlink="http://www.w3.org/1999/xlink" x="0px" y="0px"
	 width="483.94px" height="400px" viewBox="53.687 227.14 483.94 400" style="enable-background:new 53.687 227.14 483.94 400;"
	 xml:space="preserve">
<path style="fill:#333333;" d="M526.254,227.14H66.076c-7.079,0-12.389,5.31-12.389,12.39v307.965c0,7.079,5.31,12.39,12.389,12.39
	h197.642l-8.851,39.527c-2.95,13.569-15.34,22.419-28.909,21.239h-0.59c-1.77,0-3.539,1.771-3.539,3.539
	c0,1.771,1.181,2.95,2.359,2.95c0,0,0,0,0.59,0l0,0h50.147h11.8h17.699h11.209h50.736l0,0c0,0,0,0,0.59,0
	c1.181-0.59,2.36-1.771,2.36-2.95c0-1.77-1.771-3.539-3.54-3.539h-0.59c-13.569,0.59-25.959-8.26-28.908-21.239l-8.85-39.527h197.64
	c7.08,0,12.391-5.311,12.391-12.39V239.529C538.643,232.449,533.334,227.14,526.254,227.14z M518.584,538.055H74.336V246.609
	h444.839v291.446H518.584z"/>
</svg>
