<?xml version="1.0" encoding="utf-8"?>
<!-- Generator: Adobe Illustrator 18.1.0, SVG Export Plug-In . SVG Version: 6.00 Build 0)  -->
<svg version="1.1" id="Layer_1" xmlns="http://www.w3.org/2000/svg" xmlns:xlink="http://www.w3.org/1999/xlink" x="0px" y="0px"
	 viewBox="0 0 375 627" enable-background="new 0 0 375 627" xml:space="preserve">
<g>
	<g>
		<ellipse cx="187.5" cy="241.6" rx="52.4" ry="60.1"/>
	</g>
	<g>
		<g>
			<g>
				<g>
					<rect x="161.9" y="326" width="14.8" height="1"/>
				</g>
				<g>
					<rect x="110.4" y="339.6" width="1.3" height="5.8"/>
				</g>
				<g>
					<rect x="110.4" y="348.3" width="1.3" height="5.8"/>
				</g>
				<g>
					<path d="M176.8,327h-54.3c-5.9,0-10.7,3.5-10.7,7.8v102.9c0,4.3,4.8,7.8,10.7,7.8h54.3c5.9,0,10.7-3.5,10.7-7.8V334.8
						C187.4,330.5,182.7,327,176.8,327z"/>
				</g>
			</g>
			<g>
				<g>
					<rect x="198.2" y="326" width="14.8" height="1"/>
				</g>
				<g>
					<rect x="263.1" y="339.6" width="1.3" height="5.8"/>
				</g>
				<g>
					<rect x="263.1" y="348.3" width="1.3" height="5.8"/>
				</g>
				<g>
					<path d="M187.4,334.8v102.9c0,4.3,4.8,7.8,10.7,7.8h54.3c5.9,0,10.7-3.5,10.7-7.8V334.8c0-4.3-4.8-7.8-10.7-7.8h-54.3
						C192.2,327,187.4,330.5,187.4,334.8z"/>
				</g>
			</g>
		</g>
		<g>
			<g>
				<path d="M114.3,382.3l18.9,1.1c4.8,0.3,9-2.2,9.3-5.5c0.3-3.3-3.2-6.2-8-6.5l-18.9-1.1c-4.8-0.3-9,2.2-9.3,5.5
					C106,379.1,109.5,382.1,114.3,382.3z"/>
				<path fill="#FFFFFF" d="M134.1,385.1C134.1,385.1,134.1,385.1,134.1,385.1c-0.3,0-0.6,0-0.9,0l-18.9-1.1
					c-3.2-0.1-6.1-1.4-7.9-3.4c-1.2-1.4-1.8-3.2-1.7-4.9c0.4-4.2,5.3-7.3,11-7l18.9,1.1c3.3,0.2,6.2,1.5,8,3.5
					c1.2,1.4,1.7,3.1,1.6,4.8C143.8,382.1,139.5,385.1,134.1,385.1z M114.9,371.9c-3.6,0-6.7,1.8-6.9,4c-0.1,1,0.4,1.9,0.9,2.4
					c1.2,1.3,3.2,2.2,5.6,2.3l19,1.1c0.2,0,0.5,0,0.7,0c3.6,0,6.7-1.8,6.9-4c0.1-1-0.4-1.8-0.8-2.3c-1.2-1.4-3.3-2.2-5.7-2.4
					l-18.9-1.1C115.3,371.9,115.1,371.9,114.9,371.9z"/>
			</g>
			<g>
				<path d="M132.3,385.7l-20-1.2c-5-0.3-9.4,2.4-9.9,5.8c-0.4,3.5,3.5,6.6,8.4,6.9l20,1.2c5,0.3,9.4-2.4,9.9-5.8
					C141.3,389,137.4,386,132.3,385.7z"/>
				<path fill="#FFFFFF" d="M131.6,400.1C131.6,400.1,131.6,400.1,131.6,400.1c-0.3,0-0.6,0-0.9,0l-20-1.2c-3.4-0.2-6.6-1.6-8.4-3.8
					c-1.2-1.5-1.8-3.2-1.5-4.9c0.6-4.3,5.7-7.6,11.6-7.2l20,1.2c3.6,0.2,6.8,1.6,8.5,3.8c1.2,1.5,1.7,3.2,1.4,5
					C141.8,396.9,137.1,400.1,131.6,400.1z M111.5,386.1c-3.8,0-7.2,2-7.5,4.4c-0.1,0.8,0.2,1.6,0.8,2.4c1.2,1.5,3.6,2.5,6.1,2.7
					l20,1.2c0.2,0,0.4,0,0.7,0c0,0,0,0,0,0c3.8,0,7.2-2,7.5-4.4c0.1-0.9-0.1-1.7-0.7-2.4c-1.2-1.5-3.5-2.4-6.2-2.6l-20-1.2
					C111.9,386.1,111.7,386.1,111.5,386.1z"/>
			</g>
			<g>
				<path d="M131.2,400.7l-18.9-1.1c-4.8-0.3-9.1,2.2-9.4,5.6c-0.3,3.3,3.3,6.3,8.1,6.6l18.9,1.1c4.8,0.3,9.1-2.2,9.4-5.6
					C139.6,404,135.9,401,131.2,400.7z"/>
				<path fill="#FFFFFF" d="M130.7,414.6L130.7,414.6c-0.3,0-0.6,0-0.9,0l-18.9-1.1c-3.3-0.2-6.3-1.6-8-3.6
					c-1.2-1.4-1.8-3.1-1.6-4.8c0.4-4.3,5.3-7.4,11.2-7.1l18.9,1.1c3.3,0.2,6.3,1.6,8,3.7c1.2,1.4,1.8,3.1,1.6,4.7
					C140.6,411.5,136.1,414.6,130.7,414.6z M111.5,401.2c-3.6,0-6.8,1.9-7,4.1c-0.1,1,0.4,1.8,0.8,2.3c1.2,1.4,3.3,2.3,5.7,2.5
					l18.9,1.1c0.2,0,0.5,0,0.7,0c3.6,0,6.8-1.9,7-4.1c0.1-1-0.4-1.8-0.8-2.3c-1.2-1.4-3.4-2.4-5.7-2.5l-18.9-1.1
					C111.9,401.2,111.7,401.2,111.5,401.2z"/>
			</g>
			<g>
				<path d="M130.4,415.8l-17.1-1c-4.3-0.3-8.1,2-8.4,5c-0.3,3,3,5.6,7.2,5.9l17.1,1c4.3,0.3,8.1-2,8.4-5
					C138,418.7,134.7,416,130.4,415.8z"/>
				<path fill="#FFFFFF" d="M130,428.4C130,428.4,130,428.4,130,428.4c-0.3,0-0.6,0-0.9,0l-17.1-1c-3-0.2-5.8-1.5-7.4-3.4
					c-1.1-1.3-1.6-2.8-1.4-4.4c0.4-3.9,5-6.8,10.2-6.5l17.1,1c2.9,0.1,5.7,1.3,7.3,3.2c1.1,1.3,1.7,2.9,1.5,4.5
					C138.9,425.5,134.8,428.4,130,428.4z M112.6,416.4c-3.1,0-5.8,1.6-6.1,3.6c-0.1,0.6,0.2,1.3,0.7,1.9c1,1.2,2.9,2,5.1,2.2l17.1,1
					c0.2,0,0.4,0,0.7,0c3.1,0,5.8-1.6,6.1-3.6c0.1-0.8-0.3-1.5-0.7-2c-1-1.2-2.9-2-5-2.1l-17.1-1C113,416.4,112.8,416.4,112.6,416.4
					z"/>
			</g>
		</g>
		<g>
			<g>
				<path d="M268.7,376.9c-0.3-3.3-4.5-5.8-9.3-5.5l-18.9,1.1c-4.8,0.3-8.3,3.2-8,6.5c0.3,3.3,4.5,5.8,9.3,5.5l18.9-1.1
					C265.5,383.1,269,380.2,268.7,376.9z"/>
				<path fill="#FFFFFF" d="M240.9,386.2C240.9,386.2,240.9,386.2,240.9,386.2c-5.4,0-9.8-3-10.2-7c-0.2-1.7,0.4-3.3,1.6-4.8
					c1.7-2,4.6-3.3,7.9-3.5l19-1.1c0.3,0,0.6,0,0.9,0c5.4,0,9.8,3,10.2,7c0.2,1.7-0.4,3.3-1.6,4.7c-1.7,2-4.6,3.3-7.9,3.6l-19,1.1
					C241.5,386.2,241.2,386.2,240.9,386.2z M260.1,373c-0.2,0-0.5,0-0.7,0l-19,1.1c-2.4,0.1-4.5,1-5.6,2.4c-0.4,0.5-0.9,1.3-0.8,2.3
					c0.2,2.4,3.7,4.3,7.6,4l19-1.1c2.4-0.1,4.5-1,5.6-2.4c0.4-0.5,0.9-1.3,0.8-2.3C266.8,374.8,263.7,373,260.1,373z"/>
			</g>
			<g>
				<path d="M234.3,393.7c0.4,3.5,4.8,6.1,9.9,5.8l20-1.2c4.9-0.3,8.9-3.4,8.4-6.9s-4.8-6.1-9.9-5.8l-20,1.2
					C237.6,387.1,233.7,390.1,234.3,393.7z"/>
				<path fill="#FFFFFF" d="M243.3,401.2C243.3,401.2,243.3,401.2,243.3,401.2c-5.6,0-10.2-3.1-10.7-7.3c-0.3-1.7,0.2-3.4,1.4-4.9
					c1.8-2.2,5-3.6,8.5-3.8l20-1.2c6-0.4,11,2.9,11.6,7.2c0.2,1.7-0.3,3.4-1.5,4.9c-1.8,2.2-5,3.6-8.4,3.8l-20,1.2
					C243.9,401.2,243.6,401.2,243.3,401.2z M263.5,387.2c-0.2,0-0.5,0-0.7,0l-20,1.2c-2.7,0.2-5,1.1-6.2,2.6
					c-0.6,0.8-0.9,1.6-0.7,2.4c0.3,2.7,4,4.6,8.1,4.4l20-1.2c2.5-0.2,4.9-1.2,6.1-2.7c0.6-0.8,0.9-1.6,0.8-2.4
					C270.7,389.1,267.4,387.2,263.5,387.2z"/>
			</g>
			<g>
				<path d="M235.8,408.4c0.3,3.3,4.6,5.9,9.4,5.6l18.9-1.1c4.8-0.3,8.4-3.3,8.1-6.6c-0.3-3.3-4.6-5.9-9.4-5.6l-18.9,1.1
					C239.1,402.1,235.4,405.1,235.8,408.4z"/>
				<path fill="#FFFFFF" d="M244.5,415.7L244.5,415.7c-5.4,0-9.9-3.1-10.3-7.1c-0.2-1.6,0.3-3.2,1.5-4.7c1.8-2.1,4.8-3.5,8.2-3.7
					l19-1.1c0.3,0,0.6,0,0.9,0c5.4,0,9.9,3.1,10.3,7.1c0.2,1.7-0.4,3.3-1.6,4.8c-1.8,2.1-4.8,3.4-8,3.6l-19,1.1
					C245,415.7,244.7,415.7,244.5,415.7z M263.6,402.3c-0.2,0-0.4,0-0.7,0l-19,1.1c-2.4,0.2-4.7,1.1-5.8,2.5
					c-0.6,0.7-0.8,1.5-0.7,2.2c0.2,2.3,3.4,4.2,7,4.2c0,0,0,0,0,0c0.2,0,0.4,0,0.7,0l19-1.1c2.4-0.1,4.5-1.1,5.7-2.5
					c0.4-0.5,0.9-1.3,0.8-2.3C270.4,404.2,267.2,402.3,263.6,402.3z"/>
			</g>
			<g>
				<path d="M237.3,422.7c0.3,3,4.2,5.2,8.4,5l17.1-1c4.3-0.3,7.6-2.9,7.2-5.9s-4.2-5.2-8.4-5l-17.1,1
					C240.3,417.1,237,419.8,237.3,422.7z"/>
				<path fill="#FFFFFF" d="M245.2,429.4c-5,0-9.1-2.8-9.5-6.5c-0.2-1.5,0.3-3,1.4-4.3c1.6-1.9,4.3-3.2,7.3-3.4l17.1-1
					c0.2,0,0.4,0,0.6,0c5,0,9.1,2.8,9.5,6.5c0.2,1.5-0.3,3.1-1.4,4.4c-1.6,1.9-4.3,3.1-7.3,3.4l-17.1,1
					C245.6,429.3,245.4,429.4,245.2,429.4z M262.2,417.4c-0.2,0-0.3,0-0.5,0l-17.1,1c-2.1,0.1-4,1-5,2.2c-0.4,0.4-0.8,1.1-0.7,1.8
					c0.2,2.1,3.3,3.7,6.7,3.5l17.1-1c2.1-0.1,4-1,5-2.2c0.5-0.6,0.7-1.2,0.7-1.9C268.2,419,265.4,417.4,262.2,417.4z"/>
			</g>
		</g>
	</g>
</g>
<rect x="33.5" y="159.5" fill="none" stroke="#000000" stroke-width="3.0806" stroke-miterlimit="10" width="308.1" height="308.1"/>
<image overflow="visible" enable-background="new    " width="900" height="599" xlink:href="reader.jpeg"  transform="matrix(0.24 0 0 0.24 -201 220)">
</image>
</svg>
