<?xml version="1.0" encoding="utf-8"?>
<!-- Generator: Adobe Illustrator 18.1.0, SVG Export Plug-In . SVG Version: 6.00 Build 0)  -->
<svg version="1.1" id="Layer_1" xmlns="http://www.w3.org/2000/svg" xmlns:xlink="http://www.w3.org/1999/xlink" x="0px" y="0px"
	 viewBox="0 0 288 312" enable-background="new 0 0 288 312" xml:space="preserve">
<g>
	<path fill="#D8261D" d="M109.1,296.2c-3.8,1.6-7.9,2.1-12,2.3c-15.3,0.9-30-1.6-43.5-9.3C37.5,280,27,266.3,21.5,248.7
		c-2.9-9.3-4.4-18.9-3.8-28.7c0.5-7.6,2.3-14.9,4.6-22.1c5.2-16.6,12.1-32.3,21.8-46.8c0.7-1,1.3-2.2,2.2-3c2.6-2.2,2.1-4.6,0.9-7.3
		c-4.7-10.5-10.3-20.4-17.9-29.1c-0.5-0.6-1-1.2-1.4-1.8c-2.8-3.8-1.9-8,2.2-10.2c3.5-1.9,7.2-3.3,10.5-5.4
		c10.6-6.5,18.9-15.4,25.9-25.5c6.4-9.1,11.6-18.9,17-28.6c7.9-14.1,20.2-22.1,35.7-25.6c5.2-1.2,10.5-1.9,15.9-0.5
		c7.7,2,12.4,7.3,15.5,14.3c1.4,3,2.2,6.3,2.9,9.6c1.1-0.3,1.5-1.1,2.1-1.8c7.2-8.1,15.5-14.8,26.2-17.7c8.8-2.4,17.7-2.6,26.1,1.9
		c5.8,3.1,9.3,8.4,12,14.2c3.9,8.6,6,17.7,9.1,26.5c6.7,19.2,18.3,34.4,36.5,44c1.1,0.6,2.2,1.3,3.1,2.1c1.7,1.6,2.3,3.5,1.4,5.8
		c-1.3,3.3-3.5,6.1-6.4,8c-17.7,11.9-30.2,28.1-39.7,46.9c-6.8,13.4-12.1,27.5-18.2,41.2c-4.4,9.7-9.1,19.2-15.7,27.6
		c-8,10.1-18,17.3-30.5,21c-0.6,0.2-1.2,0.2-1.8,0.3c-0.1-0.1-0.2-0.3-0.2-0.3c3.2-5.4,5.2-11.4,7.3-17.3c3.8-10.4,7.2-20.9,11-31.3
		c3-8.3,6.2-16.6,9.8-24.7c5.2-11.9,11.8-23,19.8-33.2c7.9-10.1,17-19.2,26.7-27.6c2.9-2.5,5.8-4.9,8.7-7.3c0.7-0.6,1.5-1.3-0.1-1.6
		c-2-0.4-3.8-1-5.7-1.6c-7.3-2.4-14-5.9-20.5-10c-1.3-0.5-2.2-1.4-3.1-2.4c-4.4-4.2-7.8-9.3-11.5-14.2
		c-8.9-11.7-21.1-15.7-35.2-11.4c-5.4,1.7-10.6,4.2-15.8,6.4c-7,2.9-13.5,2.4-19.6-2.2c-2.8-2.1-5.7-4.2-8.7-6.1
		c-6-3.7-12.3-5-19.3-3c-7.2,2.1-13.5,5.6-19.7,9.7c-0.6,0.3-1.2,0.4-1.7,0.8c-11.1,6.8-20.6,15.2-29,25.1c-1,1.2-1,2.1,0,3.2
		c3,3.5,5.6,7.4,7.8,11.5c1.2,2.2,2.3,4.4,3.2,6.7c0.8,1.9,1.5,2,3.1,0.7c1.2-1,2.3-1.9,3.5-2.9c6.3-5.2,13-10,19.9-14.4
		c7-4.4,14.3-8.1,21.7-11.6c2.3,1.9,5,3,7.7,4.3c1.3,2.7,2.6,5.3,5.1,7.1c1.9,1.4,4,2.2,6.5,3c-1.5,1.4-2.9,2.6-4.2,3.8
		c-1.4,1.2-2.9,2.4-4.2,3.7c-13.4,13.4-24,28.8-31.9,46.1c-5.9,12.9-10.5,26.2-11,40.6c0,1.4-0.3,2.8,0.5,4.4c0.2-0.7,0.4-1,0.4-1.3
		c2.1-11.5,5.9-22.5,10.4-33.2c4.3-10.1,9.4-19.8,15.7-28.8c6.8-9.8,14.4-18.7,24.6-25.1c5.4-3.4,11.1-5.8,17.6-5.7
		c3.7,0.1,7.5-0.1,11.2-0.4c6-0.4,11.4-2.2,16.3-5.7c2.8-2,5.3-4.2,7.6-6.7c1.6-1.7,3.1-2.2,5.1-1.1c1.7,0.9,3.4,0.9,5.2,0.2
		c3,2.4,6.3,4.1,10.3,3.9c3.2-0.1,6.2-1.2,9-2.7c6,4.9,12.7,8.4,20,10.8c2.2,0.7,2.4,1.1,0.7,2.7c-4.4,4.3-9,8.4-13.3,12.8
		c-9.2,9.4-18.2,19.1-25.9,29.7c-4.1,5.6-7.9,11.4-11.1,17.6c-4.9,9.5-8.2,19.7-11.9,29.7c-4.4,11.9-8.6,23.8-14,35.3
		c-4.9,10.3-10.5,20.1-18,28.8c-7.5,8.6-16.6,15.3-27,20.1C110,293.5,108.7,294.2,109.1,296.2z M121.2,260.4c1.9,0,3.7-0.5,5.3-1.6
		c3.3-2.3,5.6-5.3,7.3-8.9c7.5-15.3,12.8-31.3,16.9-47.7c2-7.7,3.9-15.4,7.3-22.7c7.4-15.9,17-30.3,28.4-43.6
		c0.9-1.1,1.5-2.2,0.8-3.6c-0.7-1.6-2.5-1.9-4.7-0.7c-4.2,2.3-8.2,5-11.7,8.2c-11.8,10.8-20.1,24.2-26.6,38.6
		c-4.7,10.3-8.6,20.9-13.1,31.2c-5.3,12.3-11.5,24.3-18.2,36C109.4,251.5,114.5,260.4,121.2,260.4z M42.9,213.9
		c0.2,3.7,0.3,6.7,1.5,9.5c2.1,4.8,7.2,5.5,10.4,1.3c1.3-1.7,2.1-3.7,2.6-5.8c1.7-7.2,3-14.5,5.3-21.6c7.6-23.5,19.1-44.7,35.4-63.3
		c1-1.2,2.1-2.4,3.1-3.7c0.5-0.7,0.8-1.6,0.3-2.3c-0.5-0.8-1.4-0.8-2.3-0.5c-0.9,0.3-1.7,0.5-2.5,0.9c-7.9,3.5-14.1,9.2-19.9,15.4
		c-13.1,14.1-22.8,30.3-29.1,48.5C45.1,199.5,43.3,206.9,42.9,213.9z M129.2,21.5c-4.7,0-8.3,1.1-11.5,3.2
		c-4.7,3.1-9.1,6.5-10.5,12.3c-0.7,2.9,0.6,4.3,3.5,3.9c2-0.2,4-0.8,5.8-1.5c2.6-1,4.9-0.5,7.2,0.6c2.5,1.2,4.9,2.6,7.5,3.5
		c4.1,1.2,7.5-0.1,10.3-3.1c2.5-2.7,3.4-5.9,1.6-9.4C140,25,135,21.9,129.2,21.5z M200.3,46.1c5.5,0.1,9.6-2.8,10-7.3
		c0.3-3.8-1.6-6.9-4.5-9.1c-5-3.8-10.7-4.7-16.7-3.1c-4.9,1.3-9.4,3.4-12.9,7.2c-2,2.2-2.4,4.3-1.2,6.4c1.2,2,3.4,2.8,6.2,2.1
		c1.1-0.3,2.2-0.5,3.2-1c3.9-1.8,7.2-1.1,10,2.1C195.9,45,197.9,46,200.3,46.1z"/>
	<path fill="#271917" d="M109.1,296.2c-0.4-2,0.9-2.6,2.3-3.3c10.4-4.8,19.5-11.4,27-20.1c7.5-8.6,13.2-18.5,18-28.8
		c5.4-11.5,9.6-23.4,14-35.3c3.7-10,7-20.2,11.9-29.7c3.2-6.2,7-12,11.1-17.6c7.8-10.7,16.7-20.4,25.9-29.7
		c4.3-4.4,8.9-8.5,13.3-12.8c1.7-1.6,1.5-2-0.7-2.7c-7.3-2.4-14-5.9-20-10.8c0.7-0.9,2-1.1,2.3-2.3c6.5,4.1,13.2,7.6,20.5,10
		c1.9,0.6,3.8,1.3,5.7,1.6c1.6,0.3,0.9,1,0.1,1.6c-2.9,2.4-5.9,4.8-8.7,7.3c-9.7,8.4-18.8,17.5-26.7,27.6
		c-8,10.2-14.6,21.3-19.8,33.2c-3.6,8.1-6.8,16.4-9.8,24.7c-3.8,10.4-7.2,20.9-11,31.3c-2.2,5.9-4.2,11.8-7.3,17.3
		c0,0.1,0.1,0.2,0.2,0.3c-0.4,0.1-0.7,0.1-1.1,0.2c-0.8-0.1-1.6-0.3-2.2,0.5c-1.7,0.2-2.6,1.2-3.5,2.5
		c-6.9,10.1-14.6,19.5-24.7,26.7C121,291.6,115.3,294.5,109.1,296.2z"/>
	<path fill="#D8261D" d="M154.3,258.7c0.6-0.8,1.4-0.5,2.2-0.5C155.9,258.8,155.1,258.8,154.3,258.7z"/>
	<path fill="#FEFEFE" d="M214.4,103.1c-0.3,1.2-1.6,1.5-2.3,2.3c-2.8,1.5-5.8,2.5-9,2.7c-4,0.2-7.3-1.5-10.3-3.9
		c-1.9-2.2-3.4-4.6-4.5-7.5c-8,10.7-17.8,12.3-26.3,11.6c-7.9-0.6-13.6-4.3-16.4-11.9c-0.1-0.3,0-0.9-0.7-0.9
		c-4.5,4.7-9.9,7.6-16.4,8.4c-3.6,0.5-7.2-0.2-10.8-0.6c-2.7-1.3-5.4-2.3-7.7-4.3c-2.4-2.6-4.2-5.5-5-8.9c-0.3-1.3-0.8-1-1.7-0.6
		c-9.2,4.3-18.8,0.1-21.6-9.6c6.2-4.1,12.5-7.6,19.7-9.7c7-2,13.3-0.7,19.3,3c3,1.9,5.9,3.9,8.7,6.1c6.1,4.6,12.6,5.1,19.6,2.2
		c5.2-2.2,10.3-4.7,15.8-6.4c14.1-4.3,26.2-0.3,35.2,11.4c3.7,4.8,7.1,9.9,11.5,14.2C212.2,101.7,213.1,102.6,214.4,103.1z"/>
	<path fill="#FEFEFE" d="M121.2,260.4c-6.6,0-11.7-8.9-8.4-14.8c6.7-11.7,12.9-23.6,18.2-36c4.5-10.4,8.5-20.9,13.1-31.2
		c6.5-14.4,14.8-27.8,26.6-38.6c3.5-3.2,7.5-6,11.7-8.2c2.2-1.2,4-0.9,4.7,0.7c0.7,1.4,0.1,2.5-0.8,3.6
		c-11.4,13.3-21,27.7-28.4,43.6c-3.4,7.3-5.3,15-7.3,22.7c-4.2,16.4-9.4,32.5-16.9,47.7c-1.7,3.5-4,6.6-7.3,8.9
		C124.9,259.9,123.1,260.4,121.2,260.4z"/>
	<path fill="#FEFEFE" d="M42.9,213.9c0.4-7,2.2-14.4,4.7-21.6c6.3-18.2,16-34.4,29.1-48.5c5.8-6.2,12-11.9,19.9-15.4
		c0.8-0.4,1.7-0.6,2.5-0.9c0.8-0.3,1.7-0.3,2.3,0.5c0.5,0.8,0.2,1.7-0.3,2.3c-1,1.3-2,2.5-3.1,3.7c-16.2,18.6-27.8,39.8-35.4,63.3
		c-2.3,7.1-3.6,14.4-5.3,21.6c-0.5,2.1-1.3,4.1-2.6,5.8c-3.2,4.2-8.3,3.6-10.4-1.3C43.1,220.6,43,217.6,42.9,213.9z"/>
	<path fill="#271917" d="M81.5,79.9c2.9,9.6,12.5,13.9,21.6,9.6c0.9-0.4,1.4-0.7,1.7,0.6c0.8,3.4,2.7,6.3,5,8.9
		c-7.4,3.5-14.7,7.2-21.7,11.6c-7,4.4-13.6,9.2-19.9,14.4c-1.2,1-2.3,1.9-3.5,2.9c-1.6,1.3-2.3,1.2-3.1-0.7c-0.9-2.3-2-4.5-3.2-6.7
		c-2.2-4.1-4.7-7.9-7.8-11.5c-1-1.2-1-2.1,0-3.2c8.4-9.8,18-18.3,29-25.1C80.3,80.4,80.9,80.2,81.5,79.9z"/>
	<path fill="#271917" d="M117.5,103.3c3.6,0.4,7.1,1,10.8,0.6c6.5-0.8,12-3.7,16.4-8.4c0.7,0,0.6,0.6,0.7,0.9
		c2.8,7.7,8.6,11.3,16.4,11.9c8.5,0.7,18.2-0.9,26.3-11.6c1.1,2.9,2.6,5.3,4.5,7.5c-1.8,0.7-3.5,0.7-5.2-0.2
		c-2.1-1.1-3.6-0.7-5.1,1.1c-2.3,2.5-4.8,4.7-7.6,6.7c-4.9,3.5-10.4,5.3-16.3,5.7c-3.7,0.3-7.5,0.5-11.2,0.4
		c-6.5-0.1-12.2,2.3-17.6,5.7c-10.2,6.4-17.8,15.3-24.6,25.1c-6.3,9-11.4,18.7-15.7,28.8c-4.6,10.7-8.3,21.7-10.4,33.2
		c-0.1,0.3-0.2,0.6-0.4,1.3c-0.8-1.7-0.5-3.1-0.5-4.4c0.5-14.4,5-27.7,11-40.6c7.9-17.3,18.5-32.6,31.9-46.1
		c1.3-1.3,2.8-2.5,4.2-3.7c1.3-1.2,2.6-2.4,4.2-3.8c-2.5-0.8-4.6-1.6-6.5-3C120.2,108.5,118.8,105.9,117.5,103.3z"/>
	<path fill="#FEFEFE" d="M129.2,21.5c5.8,0.4,10.8,3.6,14,9.5c1.8,3.4,0.9,6.7-1.6,9.4c-2.8,3-6.2,4.4-10.3,3.1
		c-2.7-0.8-5.1-2.2-7.5-3.5c-2.3-1.1-4.6-1.6-7.2-0.6c-1.9,0.7-3.8,1.3-5.8,1.5c-3,0.3-4.2-1.1-3.5-3.9c1.5-5.8,5.8-9.3,10.5-12.3
		C120.9,22.6,124.5,21.5,129.2,21.5z"/>
	<path fill="#FEFEFE" d="M200.3,46.1c-2.3-0.1-4.4-1-5.9-2.7c-2.9-3.2-6.1-3.9-10-2.1c-1,0.5-2.1,0.7-3.2,1c-2.8,0.7-5-0.1-6.2-2.1
		c-1.2-2.1-0.8-4.2,1.2-6.4c3.5-3.8,8-5.8,12.9-7.2c6-1.6,11.7-0.7,16.7,3.1c2.9,2.2,4.8,5.3,4.5,9.1
		C209.9,43.3,205.7,46.2,200.3,46.1z"/>
</g>
</svg>
