<?xml version="1.0" encoding="utf-8"?>
<!-- Generator: Adobe Illustrator 18.1.0, SVG Export Plug-In . SVG Version: 6.00 Build 0)  -->
<svg version="1.1" id="Layer_1" xmlns="http://www.w3.org/2000/svg" xmlns:xlink="http://www.w3.org/1999/xlink" x="0px" y="0px"
	 viewBox="0 0 25.3 25.2" enable-background="new 0 0 25.3 25.2" xml:space="preserve">
<g>
	<circle cx="13.2" cy="13.4" r="8.5"/>
	<path fill="#565656" d="M16.6,5.2c0.4-0.3,0.8-0.7,1.2-1c0.9-0.6,1.7-1.2,2.5-2c0.5-0.4,1-0.9,1.6-1c0.4-0.1,0.8,0,0.9,0.4
		c0.1,0.3,0.3,0.7,0.3,1c0.1,0.8,0.1,1.6,0.1,2.4c0,0.6-0.1,1.2-0.2,1.9c-0.1,0.5-0.1,1-0.2,1.5c-0.1,0.9-0.3,1.7-0.7,2.5
		c-0.1,0.2-0.1,0.4-0.2,0.6C21.1,8.5,19.4,6.5,16.6,5.2z"/>
	<path fill="#3F3F3F" d="M7.1,3.1C7.9,3.6,9.5,4.7,10,5.2c-2.7,1.2-4.5,3.2-5.3,6.1c-0.2-0.5-0.4-0.9-0.5-1.4C4,9.5,3.9,9.2,3.8,8.8
		c0-0.1,0-0.2,0.1-0.2c0.4-0.4,0.7-0.8,1.1-1.2c0.3-0.3,0.6-0.7,0.8-1.1c0.5-0.8,0.8-1.7,1.1-2.6C7,3.6,7.1,3.3,7.1,3.1z"/>
	<path fill="#565656" d="M6.9,2.9C6.6,3.9,6.3,5,5.7,6C5,7.2,4.1,8.3,2.9,9.1C2.5,8.8,2.4,8.5,2.4,8.1c-0.1-0.5-0.2-1,0.1-1.5
		C2.6,6.3,2.8,6,3,5.7c0.1-0.2,0.2-0.4,0.3-0.6c0.1-0.2,0.3-0.3,0.5-0.4c1-0.4,1.8-1.1,2.8-1.7C6.6,2.9,6.7,2.9,6.9,2.9
		C6.8,2.8,6.9,2.9,6.9,2.9z"/>
	<path fill="#FFFFFF" d="M23.4,2.9c0-0.4-0.1-0.8-0.2-1.2C23,1,22.5,0.7,21.7,1C21,1.2,20.5,1.7,20,2.2c-0.5,0.4-1.1,0.9-1.6,1.3
		c-0.6,0.5-1.3,1-1.9,1.5c-0.1,0.1-0.2,0.1-0.4,0.1c-0.9-0.3-1.8-0.5-2.8-0.5c-0.6,0-1.1,0.1-1.7,0.1c-0.5,0.1-0.9,0.2-1.3,0.3
		c-0.5-0.4-1-0.8-1.6-1.3c-0.5-0.4-1-0.7-1.5-1.1C7.1,2.6,6.9,2.6,6.7,2.6c-0.1,0-0.2,0.1-0.3,0.2C5.5,3.4,4.6,4.1,3.6,4.5
		C3.3,4.6,3.1,4.8,3,5.1C2.8,5.4,2.7,5.7,2.5,5.9C2.1,6.5,2,7.2,2.1,7.9c0,0.3,0.1,0.7,0.3,1c0.2,0.4,0.5,0.6,0.9,0.3
		C3.3,9.1,3.4,9,3.5,9c0,0,0.1,0.1,0.1,0.1c0.2,0.7,0.5,1.4,0.7,2.1c0.1,0.3,0.2,0.6,0.2,0.8c0,0.5-0.1,0.9-0.1,1.4
		c0,0.4,0.1,0.8,0.1,1.3c0.1,0.9,0.4,1.8,0.8,2.7c0.6,1.2,1.4,2.3,2.5,3.1c0.8,0.6,1.6,1.1,2.6,1.4c0.6,0.2,1.1,0.4,1.6,0.7
		c0.8,0.6,2.1,0.5,2.9-0.2c0.2-0.1,0.3-0.3,0.5-0.3c1.4-0.4,2.7-1,3.8-2c0.9-0.8,1.6-1.8,2.1-2.9c0.7-1.5,1-3,0.8-4.6
		c0-0.2-0.1-0.4,0-0.6c0.1-0.4,0.2-0.9,0.4-1.3c0.3-0.8,0.5-1.5,0.6-2.3c0.1-0.5,0.1-1.1,0.2-1.6c0.1-0.6,0.2-1.2,0.2-1.8
		C23.5,4.4,23.4,3.7,23.4,2.9z M2.9,9.1C2.5,8.8,2.4,8.5,2.4,8.1c-0.1-0.5-0.2-1,0.1-1.5C2.6,6.3,2.8,6,3,5.7
		c0.1-0.2,0.2-0.4,0.3-0.6c0.1-0.2,0.3-0.3,0.5-0.4c1-0.4,1.8-1.1,2.8-1.7c0.1-0.1,0.2-0.1,0.3-0.2c0,0,0.1,0,0.1,0
		C6.6,3.9,6.3,5,5.7,6C5,7.2,4.1,8.3,2.9,9.1z M4.1,9.9C4,9.5,3.9,9.2,3.8,8.8c0-0.1,0-0.2,0.1-0.2c0.4-0.4,0.7-0.8,1.1-1.2
		c0.3-0.3,0.6-0.7,0.8-1.1c0.5-0.8,0.8-1.7,1.1-2.6C7,3.6,7.1,3.3,7.1,3.1C7.9,3.6,9.5,4.7,10,5.2c-2.7,1.2-4.5,3.2-5.3,6.1
		C4.5,10.8,4.3,10.4,4.1,9.9z M23.2,5c0,0.6-0.1,1.2-0.2,1.9c-0.1,0.5-0.1,1-0.2,1.5c-0.1,0.9-0.3,1.7-0.7,2.5
		c-0.1,0.2-0.1,0.4-0.2,0.6c-0.8-2.9-2.5-4.9-5.3-6.2c0.4-0.3,0.8-0.7,1.2-1c0.9-0.6,1.7-1.2,2.5-2c0.5-0.4,1-0.9,1.6-1
		c0.4-0.1,0.8,0,0.9,0.4c0.1,0.3,0.3,0.7,0.3,1C23.2,3.4,23.2,4.2,23.2,5z"/>
</g>
</svg>
