<?xml version="1.0" encoding="utf-8"?>
<!-- Generator: Adobe Illustrator 18.1.0, SVG Export Plug-In . SVG Version: 6.00 Build 0)  -->
<svg version="1.1" id="Layer_1" xmlns="http://www.w3.org/2000/svg" xmlns:xlink="http://www.w3.org/1999/xlink" x="0px" y="0px"
	 viewBox="0 0 181.9 172.8" enable-background="new 0 0 181.9 172.8" xml:space="preserve">
<g>
	<g>
		<circle fill="#09163F" cx="45.1" cy="62.5" r="7.5"/>
		<path fill="#09163F" d="M29.3,62.5c0,8.7,7.1,15.9,15.9,15.9S61,71.2,61,62.5s-7.1-15.9-15.9-15.9S29.3,53.7,29.3,62.5z
			 M58.1,62.5c0,7.1-5.8,12.9-12.9,12.9s-12.9-5.8-12.9-12.9c0-7.1,5.8-12.9,12.9-12.9S58.1,55.3,58.1,62.5z"/>
		<circle fill="#09163F" cx="131.2" cy="62.5" r="7.5"/>
		<path fill="#09163F" d="M131.2,46.6c-8.7,0-15.9,7.1-15.9,15.9s7.1,15.9,15.9,15.9c8.7,0,15.9-7.1,15.9-15.9
			S139.9,46.6,131.2,46.6z M131.2,75.4c-7.1,0-12.9-5.8-12.9-12.9c0-7.1,5.8-12.9,12.9-12.9c7.1,0,12.9,5.8,12.9,12.9
			C144.1,69.6,138.3,75.4,131.2,75.4z"/>
		<path fill="#09163F" d="M45.1,40.1c21.4,0,38,23.3,43.7,28.9c5.3-5.2,21.8-28.9,42-28.9c8.4,0,15.7,4.6,19.5,11.4l10.5-7.6
			c-3.6-14-11.2-26.3-21.4-35.9c-13.5,12.7-31.7,20.5-51.7,20.5S49.7,20.7,36.2,8C26,17.5,18.5,29.9,14.9,43.8l10.7,7.7
			C29.4,44.7,36.7,40.1,45.1,40.1z"/>
		<path fill="#09163F" d="M162.2,49.7l-9.7,7c0.5,1.9,0.8,3.8,0.8,5.8c0,12.4-10,22.4-22.4,22.4c-8.5,0-15.8-4.7-19.6-11.6
			c-7,1.7-22.4,24.9-22.4,24.9S72.6,74.4,64.9,73C61.1,80,53.7,84.9,45.1,84.9c-12.4,0-22.4-10-22.4-22.4c0-2,0.3-4,0.8-5.8
			l-9.9-7.1c-0.8,4.4-1.2,8.9-1.2,13.5c0,41.7,33.8,75.5,75.5,75.5c41.7,0,75.5-33.8,75.5-75.5C163.4,58.5,163,54,162.2,49.7z"/>
	</g>
	<g>
		<path fill="#09163F" d="M17.6,160.9l2.7-6.7h2.5l-4.2,10.5h-2l-4.2-10.5h2.5L17.6,160.9z"/>
		<path fill="#09163F" d="M24,154.2h2.3v10.5H24V154.2z"/>
		<path fill="#09163F" d="M37.4,157.7c0,1.7-0.7,2.8-2,3.3l2.7,3.7h-2.9l-2.3-3.3h-1.6v3.3h-2.3v-10.5h4c1.6,0,2.8,0.3,3.5,0.8
			C37.1,155.6,37.4,156.5,37.4,157.7z M34.6,159c0.3-0.3,0.4-0.7,0.4-1.2c0-0.6-0.2-1-0.4-1.2c-0.3-0.2-0.8-0.3-1.6-0.3h-1.8v3.1H33
			C33.8,159.4,34.3,159.2,34.6,159z"/>
		<path fill="#09163F" d="M44,156.3v8.5h-2.3v-8.5h-3v-2H47v2H44z"/>
		<path fill="#09163F" d="M51.5,162c0.4,0.5,0.9,0.7,1.6,0.7c0.7,0,1.2-0.2,1.6-0.7c0.4-0.5,0.6-1.1,0.6-2v-5.8h2.3v5.9
			c0,1.5-0.4,2.7-1.3,3.5c-0.8,0.8-1.9,1.2-3.2,1.2c-1.3,0-2.4-0.4-3.2-1.2c-0.8-0.8-1.3-2-1.3-3.5v-5.9h2.3v5.8
			C50.9,160.9,51.1,161.5,51.5,162z"/>
		<path fill="#09163F" d="M67.2,164.7l-1-2.3h-4.4l-1,2.3h-2.5l4.5-10.5h2.3l4.5,10.5H67.2z M64,157.4l-1.3,3h2.6L64,157.4z"/>
		<path fill="#09163F" d="M70.9,164.7v-10.5h2.3v8.4h4.5v2.1H70.9z"/>
		<path fill="#09163F" d="M83.4,164.7v-10.5h2.3v8.4h4.5v2.1H83.4z"/>
		<path fill="#09163F" d="M99.4,154.2v2.1h-5.2v2.2h4.7v2h-4.7v2.2h5.4v2.1h-7.7v-10.5H99.4z"/>
		<path fill="#09163F" d="M109.1,164.7l-1-2.3h-4.4l-1,2.3h-2.5l4.5-10.5h2.3l4.5,10.5H109.1z M106,157.4l-1.3,3h2.6L106,157.4z"/>
		<path fill="#09163F" d="M121.3,157.7c0,1.7-0.7,2.8-2,3.3l2.7,3.7h-2.9l-2.3-3.3h-1.6v3.3h-2.3v-10.5h4c1.6,0,2.8,0.3,3.5,0.8
			C121,155.6,121.3,156.5,121.3,157.7z M118.5,159c0.3-0.3,0.4-0.7,0.4-1.2c0-0.6-0.2-1-0.4-1.2c-0.3-0.2-0.8-0.3-1.6-0.3h-1.8v3.1
			h1.7C117.7,159.4,118.2,159.2,118.5,159z"/>
		<path fill="#09163F" d="M131.1,154.2h2.3v10.5h-2.3l-5-6.6v6.6h-2.3v-10.5h2.2l5.1,6.7V154.2z"/>
		<path fill="#09163F" d="M136,154.2h2.3v10.5H136V154.2z"/>
		<path fill="#09163F" d="M148.2,154.2h2.3v10.5h-2.3l-5-6.6v6.6h-2.3v-10.5h2.2l5.1,6.7V154.2z"/>
		<path fill="#09163F" d="M160,159.4h2.4v3.7c-1,1.2-2.5,1.7-4.3,1.7c-1.5,0-2.8-0.5-3.9-1.5c-1-1-1.6-2.3-1.6-3.9
			c0-1.6,0.5-2.9,1.6-3.9c1.1-1,2.3-1.6,3.9-1.6c1.5,0,2.8,0.5,3.9,1.5l-1.2,1.8c-0.5-0.4-0.9-0.7-1.3-0.8c-0.4-0.2-0.8-0.2-1.3-0.2
			c-0.9,0-1.6,0.3-2.2,0.9c-0.6,0.6-0.9,1.4-0.9,2.4c0,1,0.3,1.8,0.9,2.4c0.6,0.6,1.3,0.9,2.1,0.9s1.5-0.2,2-0.5V159.4z"/>
	</g>
</g>
</svg>
